<svg xmlns="http://www.w3.org/2000/svg" xmlns:xlink="http://www.w3.org/1999/xlink" width="157.747620" height="72.834854" viewBox="0 0 157.748 72.8349"><path d="M0 0L145.904 0L145.904 60.9908L0 60.9908L0 0Z" fill="#FFFFFF" fill-opacity="1.000000" transform="matrix(1 0 0 1 5.922 5.92201)"/><path d="M6.40002 2L3.65002 6.05L2.70001 6.05L2.70001 7.55L4.45001 7.55L7.20001 3.5L8.09998 3.5C8.45001 4.65 9.5 5.5 10.75 5.5C12.3 5.5 13.5 4.25 13.5 2.75C13.5 1.25 12.25 0 10.75 0C9.5 0 8.40002 0.849998 8.09998 2L6.40002 2L6.40002 2L6.40002 2ZM10.75 1.5C11.45 1.5 12 2.05 12 2.75C12 3.45 11.45 4 10.75 4C10.05 4 9.5 3.45 9.5 2.75C9.5 2.05 10.05 1.5 10.75 1.5L10.75 1.5ZM10.75 14.8C9.5 14.8 8.40002 15.65 8.09998 16.8L7.20001 16.8L4.54999 12.75L2.70001 12.75L2.70001 14.25L3.75 14.25L6.40002 18.3L8.09998 18.3C8.45001 19.45 9.5 20.3 10.75 20.3C12.3 20.3 13.5 19.05 13.5 17.55C13.5 16.05 12.3 14.8 10.75 14.8L10.75 14.8ZM10.75 18.8C10.05 18.8 9.5 18.25 9.5 17.55C9.5 16.85 10.05 16.3 10.75 16.3C11.45 16.3 12 16.85 12 17.55C12 18.25 11.45 18.8 10.75 18.8L10.75 18.8ZM11.45 7.4C10.2 7.4 9.09998 8.25 8.79999 9.4L4.04999 9.4L4.04999 10.9L8.79999 10.9C9.15002 12.05 10.2 12.9 11.45 12.9C13 12.9 14.2 11.65 14.2 10.15C14.2 8.65 12.95 7.4 11.45 7.4L11.45 7.4ZM11.45 11.4C10.75 11.4 10.2 10.85 10.2 10.15C10.2 9.45 10.75 8.9 11.45 8.9C12.15 8.9 12.7 9.45 12.7 10.15C12.7 10.85 12.15 11.4 11.45 11.4L11.45 11.4ZM5.34998 20.85C4.90002 20.85 4.45001 20.95 4.09998 21.15L1.15002 16.15L0 16.15L0 17.65L0.299988 17.65L3 22.2C2.75 22.6 2.59998 23.1 2.59998 23.6C2.59998 25.15 3.84998 26.35 5.34998 26.35C6.84998 26.35 8.09998 25.1 8.09998 23.6C8.09998 22.1 6.90002 20.85 5.34998 20.85L5.34998 20.85L5.34998 20.85ZM5.34998 24.9C4.65002 24.9 4.09998 24.35 4.09998 23.65C4.09998 22.95 4.65002 22.4 5.34998 22.4C6.04999 22.4 6.59998 22.95 6.59998 23.65C6.59998 24.35 6.04999 24.9 5.34998 24.9L5.34998 24.9ZM0 6.05L1.34998 6.05L1.34998 7.55L0 7.55L0 6.05L0 6.05ZM0 12.75L1.34998 12.75L1.34998 14.25L0 14.25L0 12.75L0 12.75ZM1.34998 9.4L2.70001 9.4L2.70001 10.9L1.34998 10.9L1.34998 9.4L1.34998 9.4Z" fill="#2344DC" fill-opacity="1.000000" transform="matrix(1 0 0 1 38.5954 25.7174)"/><path d="M18.95 21.6L21.55 21.6L21.55 20.1L18.95 20.1L18.95 18.25L20.2 18.25L20.2 16.75L18.95 16.75L18.95 14.9L22.65 14.9L25.8 11.3C26.15 11.45 26.55 11.55 26.95 11.55C28.5 11.55 29.7 10.3 29.7 8.8C29.7 7.3 28.45 6.05 26.95 6.05C25.45 6.05 24.2 7.3 24.2 8.8C24.2 9.35 24.4 9.9 24.7 10.35L22 13.45L19 13.45L19 4L17.5 4L17.5 6.3C16.5 5.25 15.1 4.6 13.55 4.6C11.35 4.6 9.29999 6 8.5 8C5.54999 8.4 3.34998 11.15 3.34998 14.45L3.34998 14.7C1.29999 15.9 0 18.55 0 21.5C0 23.35 0.5 25.1 1.45001 26.45C1.29999 27.15 1.29999 27.85 1.40002 28.55C1.75 31.9 4.34998 34.4 7.25 34.4C7.29999 34.5 7.34998 34.6 7.40002 34.65C7.40002 34.7 7.45001 34.75 7.45001 34.8C8.5 36.6 10.55 37.75 12.8 37.75C14.65 37.75 16.3 36.95 17.45 35.75L17.45 38.35L18.95 38.35L18.95 28.35L20.2 28.35L20.2 26.85L18.95 26.85L18.95 25L20.2 25L20.2 23.5L18.95 23.5L18.95 21.6L18.95 21.6ZM26.95 7.45C27.65 7.45 28.2 8 28.2 8.7C28.2 9.4 27.65 9.95 26.95 9.95C26.25 9.95 25.7 9.4 25.7 8.7C25.7 8 26.25 7.45 26.95 7.45L26.95 7.45ZM12.85 36.25C10.9 36.25 9.15002 35.1 8.5 33.35C8.34998 32.9 8.25 32.4 8.25 31.95C8.25 29.6 10.35 27.65 12.9 27.65L13.65 27.65L13.65 26.25C13.65 25.5 14.95 24.3 15.6 24.3L15.6 22.8C14.2 22.8 12.2 24.55 12.15 26.2C10.6 26.4 9.25 27.1 8.25 28.15C7.25 27.85 6.25 27.15 6.25 26.2L4.75 26.2C4.75 27.75 6 28.9 7.34998 29.4C6.95001 30.15 6.75 31 6.75 31.9C6.75 32.2 6.79999 32.5 6.84998 32.8C4.84998 32.55 3.20001 30.75 2.90002 28.35C2.84998 27.7 2.84998 27.05 3 26.45L3.09998 26.1L2.90002 25.8C2.04999 24.65 1.54999 23.1 1.54999 21.45C1.54999 18.85 2.75 16.6 4.5 15.75L5 15.5L4.95001 14.95C4.90002 14.7 4.90002 14.5 4.90002 14.3C4.90002 12 6.29999 10.05 8.15002 9.5L8.15002 9.95C8.15002 11.05 8.5 12.1 9.04999 12.95C7.79999 13.55 6.79999 14.6 6.79999 16L8.29999 16C8.29999 15.1 9.20001 14.45 10.1 14.15C11.05 14.95 12.25 15.4 13.6 15.4L13.6 13.9C11.4 13.9 9.65002 12.1 9.65002 9.95C9.65002 9.6 9.70001 9.2 9.79999 8.85L9.79999 8.8C10.3 7.15 11.85 5.95 13.6 5.95C15.8 5.95 17.55 7.75 17.55 9.9L17.55 11.4C16.1 11.45 14.85 10.6 14.3 9.15L12.9 9.65C13.65 11.65 15.45 12.9 17.4 12.9L17.55 12.9L17.55 18.15C16.9033 17.6459 16.1699 17.3959 15.35 17.4C13.95 17.4 12.45 18.15 11.35 19.45C10.45 20.5 9.09998 21.35 7.90002 20.65L7.90002 20.7C7.65002 19.25 6.40002 18.1 4.84998 18.1L4.84998 19.6C5.75 19.6 6.45001 20.3 6.45001 21.2C6.45001 22.1 5.75 22.8 4.84998 22.8L4.84998 24.3C6.20001 24.3 7.34998 23.45 7.79999 22.25C8.15002 22.35 8.5 22.45 8.90002 22.45C10.15 22.45 11.45 21.75 12.55 20.45C13.35 19.5 14.45 18.95 15.4 18.95C16.05 18.95 16.65 19.2 17.1 19.75C17.3 20 17.45 20.25 17.6 20.55L17.6 28.25C15.55 28.2 13.7 29.45 12.95 31.5L14.35 32C14.9 30.55 16.2 29.65 17.6 29.75L17.6 32C17.45 34.3 15.4 36.25 12.85 36.25L12.85 36.25L12.85 36.25ZM17.45 0L18.95 0L18.95 2.7L17.45 2.7L17.45 0L17.45 0ZM17.45 39.7L18.95 39.7L18.95 42.4L17.45 42.4L17.45 39.7L17.45 39.7Z" fill="#2344DC" fill-opacity="1.000000" transform="matrix(1 0 0 1 16.9954 15.0174)"/><path d="M6.40002 2L3.65002 6.05L2.70001 6.05L2.70001 7.55L4.45001 7.55L7.20001 3.5L8.09998 3.5C8.45001 4.65 9.5 5.5 10.75 5.5C12.3 5.5 13.5 4.25 13.5 2.75C13.5 1.25 12.25 0 10.75 0C9.5 0 8.40002 0.849998 8.09998 2L6.40002 2L6.40002 2L6.40002 2ZM10.75 1.5C11.45 1.5 12 2.05 12 2.75C12 3.45 11.45 4 10.75 4C10.05 4 9.5 3.45 9.5 2.75C9.5 2.05 10.05 1.5 10.75 1.5L10.75 1.5ZM10.75 14.8C9.5 14.8 8.40002 15.65 8.09998 16.8L7.20001 16.8L4.54999 12.75L2.70001 12.75L2.70001 14.25L3.75 14.25L6.40002 18.3L8.09998 18.3C8.45001 19.45 9.5 20.3 10.75 20.3C12.3 20.3 13.5 19.05 13.5 17.55C13.5 16.05 12.3 14.8 10.75 14.8L10.75 14.8ZM10.75 18.8C10.05 18.8 9.5 18.25 9.5 17.55C9.5 16.85 10.05 16.3 10.75 16.3C11.45 16.3 12 16.85 12 17.55C12 18.25 11.45 18.8 10.75 18.8L10.75 18.8ZM11.45 7.4C10.2 7.4 9.09998 8.25 8.79999 9.4L4.04999 9.4L4.04999 10.9L8.79999 10.9C9.15002 12.05 10.2 12.9 11.45 12.9C13 12.9 14.2 11.65 14.2 10.15C14.2 8.65 12.95 7.4 11.45 7.4L11.45 7.4ZM11.45 11.4C10.75 11.4 10.2 10.85 10.2 10.15C10.2 9.45 10.75 8.9 11.45 8.9C12.15 8.9 12.7 9.45 12.7 10.15C12.7 10.85 12.15 11.4 11.45 11.4L11.45 11.4ZM5.34998 20.85C4.90002 20.85 4.45001 20.95 4.09998 21.15L1.15002 16.15L0 16.15L0 17.65L0.299988 17.65L3 22.2C2.75 22.6 2.59998 23.1 2.59998 23.6C2.59998 25.15 3.84998 26.35 5.34998 26.35C6.84998 26.35 8.09998 25.1 8.09998 23.6C8.09998 22.1 6.90002 20.85 5.34998 20.85L5.34998 20.85L5.34998 20.85ZM5.34998 24.9C4.65002 24.9 4.09998 24.35 4.09998 23.65C4.09998 22.95 4.65002 22.4 5.34998 22.4C6.04999 22.4 6.59998 22.95 6.59998 23.65C6.59998 24.35 6.04999 24.9 5.34998 24.9L5.34998 24.9ZM0 6.05L1.34998 6.05L1.34998 7.55L0 7.55L0 6.05L0 6.05ZM0 12.75L1.34998 12.75L1.34998 14.25L0 14.25L0 12.75L0 12.75ZM1.34998 9.4L2.70001 9.4L2.70001 10.9L1.34998 10.9L1.34998 9.4L1.34998 9.4Z" fill="#2344DC" fill-opacity="1.000000" transform="matrix(1 0 0 1 38.5954 25.7174)"/><path d="M18.95 21.6L21.55 21.6L21.55 20.1L18.95 20.1L18.95 18.25L20.2 18.25L20.2 16.75L18.95 16.75L18.95 14.9L22.65 14.9L25.8 11.3C26.15 11.45 26.55 11.55 26.95 11.55C28.5 11.55 29.7 10.3 29.7 8.8C29.7 7.3 28.45 6.05 26.95 6.05C25.45 6.05 24.2 7.3 24.2 8.8C24.2 9.35 24.4 9.9 24.7 10.35L22 13.45L19 13.45L19 4L17.5 4L17.5 6.3C16.5 5.25 15.1 4.6 13.55 4.6C11.35 4.6 9.29999 6 8.5 8C5.54999 8.4 3.34998 11.15 3.34998 14.45L3.34998 14.7C1.29999 15.9 0 18.55 0 21.5C0 23.35 0.5 25.1 1.45001 26.45C1.29999 27.15 1.29999 27.85 1.40002 28.55C1.75 31.9 4.34998 34.4 7.25 34.4C7.29999 34.5 7.34998 34.6 7.40002 34.65C7.40002 34.7 7.45001 34.75 7.45001 34.8C8.5 36.6 10.55 37.75 12.8 37.75C14.65 37.75 16.3 36.95 17.45 35.75L17.45 38.35L18.95 38.35L18.95 28.35L20.2 28.35L20.2 26.85L18.95 26.85L18.95 25L20.2 25L20.2 23.5L18.95 23.5L18.95 21.6L18.95 21.6ZM26.95 7.45C27.65 7.45 28.2 8 28.2 8.7C28.2 9.4 27.65 9.95 26.95 9.95C26.25 9.95 25.7 9.4 25.7 8.7C25.7 8 26.25 7.45 26.95 7.45L26.95 7.45ZM12.85 36.25C10.9 36.25 9.15002 35.1 8.5 33.35C8.34998 32.9 8.25 32.4 8.25 31.95C8.25 29.6 10.35 27.65 12.9 27.65L13.65 27.65L13.65 26.25C13.65 25.5 14.95 24.3 15.6 24.3L15.6 22.8C14.2 22.8 12.2 24.55 12.15 26.2C10.6 26.4 9.25 27.1 8.25 28.15C7.25 27.85 6.25 27.15 6.25 26.2L4.75 26.2C4.75 27.75 6 28.9 7.34998 29.4C6.95001 30.15 6.75 31 6.75 31.9C6.75 32.2 6.79999 32.5 6.84998 32.8C4.84998 32.55 3.20001 30.75 2.90002 28.35C2.84998 27.7 2.84998 27.05 3 26.45L3.09998 26.1L2.90002 25.8C2.04999 24.65 1.54999 23.1 1.54999 21.45C1.54999 18.85 2.75 16.6 4.5 15.75L5 15.5L4.95001 14.95C4.90002 14.7 4.90002 14.5 4.90002 14.3C4.90002 12 6.29999 10.05 8.15002 9.5L8.15002 9.95C8.15002 11.05 8.5 12.1 9.04999 12.95C7.79999 13.55 6.79999 14.6 6.79999 16L8.29999 16C8.29999 15.1 9.20001 14.45 10.1 14.15C11.05 14.95 12.25 15.4 13.6 15.4L13.6 13.9C11.4 13.9 9.65002 12.1 9.65002 9.95C9.65002 9.6 9.70001 9.2 9.79999 8.85L9.79999 8.8C10.3 7.15 11.85 5.95 13.6 5.95C15.8 5.95 17.55 7.75 17.55 9.9L17.55 11.4C16.1 11.45 14.85 10.6 14.3 9.15L12.9 9.65C13.65 11.65 15.45 12.9 17.4 12.9L17.55 12.9L17.55 18.15C16.9033 17.6459 16.1699 17.3959 15.35 17.4C13.95 17.4 12.45 18.15 11.35 19.45C10.45 20.5 9.09998 21.35 7.90002 20.65L7.90002 20.7C7.65002 19.25 6.40002 18.1 4.84998 18.1L4.84998 19.6C5.75 19.6 6.45001 20.3 6.45001 21.2C6.45001 22.1 5.75 22.8 4.84998 22.8L4.84998 24.3C6.20001 24.3 7.34998 23.45 7.79999 22.25C8.15002 22.35 8.5 22.45 8.90002 22.45C10.15 22.45 11.45 21.75 12.55 20.45C13.35 19.5 14.45 18.95 15.4 18.95C16.05 18.95 16.65 19.2 17.1 19.75C17.3 20 17.45 20.25 17.6 20.55L17.6 28.25C15.55 28.2 13.7 29.45 12.95 31.5L14.35 32C14.9 30.55 16.2 29.65 17.6 29.75L17.6 32C17.45 34.3 15.4 36.25 12.85 36.25L12.85 36.25L12.85 36.25ZM17.45 0L18.95 0L18.95 2.7L17.45 2.7L17.45 0L17.45 0ZM17.45 39.7L18.95 39.7L18.95 42.4L17.45 42.4L17.45 39.7L17.45 39.7Z" fill="#2344DC" fill-opacity="1.000000" transform="matrix(1 0 0 1 16.9954 15.0174)"/><path d="M11.5222 22.0518L12.9952 26.8804L12.6031 27L12.6031 26.5901L14.9598 26.5901L14.9598 27L14.5691 27.124L8.65182 8.47543L9.04249 8.35147L9.04249 8.76133L7.05724 8.76133L7.05724 8.35147L7.44728 8.47738L1.42749 27.1259L1.03745 27L1.03745 26.5901L3.40694 26.5901L3.40694 27L3.0155 26.8785L4.60354 21.7615L11.4337 21.7615L11.5222 22.0518ZM10.7382 22.2909L11.1302 22.1714L11.1302 22.5812L4.90549 22.5812L4.90549 22.1714L5.29693 22.2928L3.70889 27.4099L0.474467 27.4099L6.75886 7.94161L9.34243 7.94161L15.5199 27.4099L12.2996 27.4099L10.7382 22.2909ZM5.15425 19.9884L8.0465 10.6146L11.0555 20.5191L4.99051 20.5191L5.15425 19.9884ZM5.93753 20.2301L5.54589 20.1093L5.54589 19.6994L10.5026 19.6994L10.5026 20.1093L10.1104 20.2284L7.6513 12.1337L8.04346 12.0146L8.4351 12.1354L5.93753 20.2301ZM5.54589 20.1093L10.5026 20.1093L8.04346 12.0146L5.54589 20.1093ZM11.1302 22.1714L4.90549 22.1714L3.40694 27L1.03745 27L7.05724 8.35147L9.04249 8.35147L14.9598 27L12.6031 27L11.1302 22.1714ZM18.3723 8.35147L18.3723 10.4136L17.9624 10.4136L17.9624 10.0037L22.7398 10.0037L22.7398 25.3606L17.9624 25.3606L17.9624 24.9507L18.3723 24.9507L18.3723 27L17.9624 27L17.9624 26.5901L29.2335 26.5901L29.2335 27L28.8236 27L28.8236 24.9507L29.2335 24.9507L29.2335 25.3606L24.3536 25.3606L24.3536 10.0037L29.2335 10.0037L29.2335 10.4136L28.8236 10.4136L28.8236 8.35147L29.2335 8.35147L29.2335 8.76133L17.9624 8.76133L17.9624 8.35147L18.3723 8.35147ZM17.5526 7.94161L29.6434 7.94161L29.6434 10.8234L24.7635 10.8234L24.7635 10.4136L25.1733 10.4136L25.1733 24.9507L24.7635 24.9507L24.7635 24.5409L29.6434 24.5409L29.6434 27.4099L17.5526 27.4099L17.5526 24.5409L22.33 24.5409L22.33 24.9507L21.9201 24.9507L21.9201 10.4136L22.33 10.4136L22.33 10.8234L17.5526 10.8234L17.5526 8.35147L17.5526 7.94161ZM17.9624 8.35147L29.2335 8.35147L29.2335 10.4136L24.7635 10.4136L24.7635 24.9507L29.2335 24.9507L29.2335 27L17.9624 27L17.9624 24.9507L22.33 24.9507L22.33 10.4136L17.9624 10.4136L17.9624 8.35147Z" fill="#0E1318" fill-opacity="1.000000" transform="matrix(1 0 0 1 61.1325 12.2571)"/><path d="M42.8924 20.7369L42.8924 8.35147L43.3023 8.35147L43.3023 8.76133L40.7791 8.76133L40.7791 8.35147L41.1233 8.57391L32.7725 21.4972L32.4282 21.2748L32.8381 21.2748L32.8381 22.6709L32.4282 22.6709L32.4282 22.261L41.3426 22.261L41.3426 27L40.9328 27L40.9328 26.5901L43.3023 26.5901L43.3023 27L42.8924 27L42.8924 22.261L45.9023 22.261L45.9023 22.6709L45.4924 22.6709L45.4924 20.7369L45.9023 20.7369L45.9023 21.1467L42.8924 21.1467L42.8924 20.7369ZM43.7121 20.7369L43.3023 20.7369L43.3023 20.327L46.3122 20.327L46.3122 23.0807L43.3023 23.0807L43.3023 22.6709L43.7121 22.6709L43.7121 27.4099L40.5229 27.4099L40.5229 22.6709L40.9328 22.6709L40.9328 23.0807L32.0184 23.0807L32.0184 21.1539L40.5559 7.94161L43.7121 7.94161L43.7121 20.7369ZM34.7095 20.5147L40.2041 11.9973L40.5485 12.2195L40.1873 12.026L40.5715 11.3087L41.3426 11.5023L41.3426 21.1467L34.3017 21.1467L34.7095 20.5147ZM35.3983 20.959L35.0539 20.7369L35.0539 20.327L40.9328 20.327L40.9328 20.7369L40.5229 20.7369L40.5229 11.5023L40.9328 11.5023L41.2941 11.6958L40.902 12.4277L35.3983 20.959ZM35.0539 20.7369L40.9328 20.7369L40.9328 11.5023L40.5485 12.2195L35.0539 20.7369ZM43.3023 20.7369L45.9023 20.7369L45.9023 22.6709L43.3023 22.6709L43.3023 27L40.9328 27L40.9328 22.6709L32.4282 22.6709L32.4282 21.2748L40.7791 8.35147L43.3023 8.35147L43.3023 20.7369Z" fill="#FF4568" fill-opacity="1.000000" transform="matrix(1 0 0 1 61.1325 12.2571)"/><path d="M54.2435 18.1182L59.8791 26.7764L59.5356 27L59.5356 26.5901L62.4174 26.5901L62.4174 27L62.0758 27.2265L54.956 16.4877L61.6617 8.09562L61.9819 8.35147L61.9819 8.76133L59.1001 8.76133L59.1001 8.35147L59.4205 8.60714L53.9514 15.4595L51.4153 18.6251L51.4153 8.35147L51.8251 8.35147L51.8251 8.76133L49.4044 8.76133L49.4044 8.35147L49.8143 8.35147L49.8143 27L49.4044 27L49.4044 26.5901L51.8251 26.5901L51.8251 27L51.4153 27L51.4153 20.5437L53.9491 17.6658L54.2435 18.1182ZM53.5565 18.5653L53.9 18.3418L54.2077 18.6126L52.1328 20.9693L51.8251 20.6984L52.235 20.6984L52.235 27.4099L48.9946 27.4099L48.9946 7.94161L52.235 7.94161L52.235 17.458L51.8251 17.458L51.5053 17.2017L53.3107 14.9481L58.9028 7.94161L62.8341 7.94161L55.7828 16.7661L55.4626 16.5102L55.8042 16.2837L63.1809 27.4099L59.3133 27.4099L53.5565 18.5653ZM53.9 18.3418L51.8251 20.6984L51.8251 27L49.4044 27L49.4044 8.35147L51.8251 8.35147L51.8251 17.458L53.6311 15.2038L59.1001 8.35147L61.9819 8.35147L55.4626 16.5102L62.4174 27L59.5356 27L53.9 18.3418ZM76.8192 24.556L76.7808 17.7165L77.1906 17.7142L77.1906 18.124L71.1452 18.124L71.1452 17.7142L71.5551 17.7142L71.5551 19.7122L71.1452 19.7122L71.1452 19.3024L75.3488 19.3024L75.3198 24.0303L75.247 24.1348Q74.9025 24.6291 74.3923 24.9367Q73.9138 25.2252 73.3663 25.3937Q72.827 25.5596 72.254 25.6148Q71.6975 25.6685 71.1857 25.655Q70.2633 25.6411 69.5223 25.3205Q68.7871 25.0023 68.2335 24.463Q67.6799 23.9371 67.291 23.2426Q66.9123 22.5664 66.6692 21.8101Q66.4282 21.0602 66.3144 20.2771Q66.2018 19.5022 66.1886 18.7719L66.1885 16.5742Q66.1885 15.858 66.2811 15.0906Q66.3746 14.3155 66.5885 13.567Q66.8037 12.8139 67.1404 12.1337Q67.4905 11.4266 68.0248 10.8922Q68.5657 10.3513 69.2891 10.0322Q70.0214 9.70913 70.9531 9.70912Q71.9182 9.70913 72.6595 10.0156Q73.4009 10.3222 73.9454 10.8666Q74.4761 11.4116 74.8006 12.1665Q75.1142 12.8958 75.2633 13.75L74.8595 13.8205L74.8595 13.4107L77.2034 13.4107L77.2034 13.8205L76.7951 13.8565Q76.6863 12.6231 76.2181 11.6326Q75.7527 10.648 74.9916 9.94643Q74.2337 9.25958 73.2072 8.88362Q72.174 8.50517 70.9403 8.50517Q69.8344 8.50517 68.9546 8.82616Q68.0691 9.14926 67.3782 9.69724Q66.6739 10.2583 66.1717 11.0175Q65.659 11.7926 65.3166 12.6976Q64.9722 13.6077 64.806 14.5991Q64.6383 15.599 64.6259 16.6049L64.6259 18.7644Q64.6382 19.7731 64.8298 20.7682Q65.0201 21.7566 65.4002 22.6516Q65.7688 23.5607 66.3171 24.3282Q66.8579 25.0853 67.5778 25.6373Q68.2964 26.2002 69.1996 26.5172Q70.103 26.8343 71.1882 26.8463Q72.2748 26.8585 73.2604 26.6091Q74.2394 26.3613 75.0841 25.8545Q75.5815 25.5633 76.0405 25.1708Q76.5024 24.7757 76.9167 24.2882L77.229 24.5537L76.8192 24.556ZM77.6389 24.5514L77.6397 24.7033L77.5413 24.8191Q77.0847 25.3563 76.5732 25.7937Q76.0588 26.2337 75.5059 26.5574Q74.5575 27.1264 73.4616 27.4037Q72.3723 27.6794 71.1791 27.666Q69.9589 27.6524 68.9282 27.2907Q67.8974 26.9289 67.079 26.2878Q66.262 25.6614 65.65 24.8047Q65.0455 23.9584 64.6457 22.972Q64.2317 21.997 64.0249 20.9232Q63.8195 19.8563 63.8062 18.7644L63.8062 16.5948Q63.8194 15.5258 63.9976 14.4636Q64.1771 13.3929 64.55 12.4075Q64.9248 11.4168 65.488 10.5653Q66.0617 9.69791 66.8688 9.05499Q67.6636 8.42463 68.6737 8.0561Q69.6895 7.68545 70.9403 7.68545Q72.3194 7.68545 73.4892 8.11391Q74.6657 8.54485 75.5472 9.34374Q76.4256 10.1535 76.9592 11.2823Q77.49 12.4051 77.6117 13.7845L77.651 14.2304L74.515 14.2304L74.4558 13.891Q74.3232 13.1314 74.0475 12.4902Q73.7829 11.8747 73.3658 11.4462Q72.9368 11.0173 72.3463 10.7731Q71.7555 10.5288 70.9531 10.5288Q70.1941 10.5288 69.62 10.7821Q69.0369 11.0394 68.6044 11.4719Q68.1654 11.911 67.875 12.4974Q67.5714 13.1108 67.3767 13.7922Q67.1807 14.4782 67.0949 15.1888Q67.0082 15.9072 67.0082 16.5742L67.0081 18.757Q67.0205 19.4355 67.1256 20.1592Q67.2296 20.8746 67.4496 21.5592Q67.6676 22.2374 68.0062 22.8421Q68.3345 23.4283 68.8056 23.8759Q69.2511 24.3099 69.8478 24.5682Q70.4389 24.8239 71.2072 24.8356Q71.6688 24.8477 72.1754 24.7989Q72.6655 24.7517 73.1252 24.6102Q73.5767 24.4713 73.9691 24.2347Q74.3298 24.0172 74.5745 23.6661L74.9108 23.9004L74.5009 23.8979L74.5265 19.7097L74.9364 19.7122L74.9364 20.1221L70.7354 20.1221L70.7354 17.3043L77.5982 17.3043L77.6389 24.5514ZM77.229 24.5537Q76.7936 25.066 76.3069 25.4822Q75.8201 25.8985 75.295 26.2059Q74.3985 26.7438 73.361 27.0064Q72.3235 27.269 71.1836 27.2562Q70.0309 27.2434 69.0639 26.9039Q68.0969 26.5645 67.3284 25.9625Q66.5599 25.3734 65.9836 24.5665Q65.4072 23.7596 65.023 22.8118Q64.6259 21.8768 64.4274 20.8457Q64.2289 19.8147 64.216 18.7644L64.216 16.5999Q64.2289 15.5624 64.4018 14.5314Q64.5747 13.5003 64.9333 12.5525Q65.2919 11.6047 65.8299 10.7914Q66.3678 9.97809 67.1235 9.37611Q67.8663 8.78694 68.8141 8.44113Q69.7619 8.09531 70.9403 8.09531Q72.2467 8.09531 73.3482 8.49876Q74.4497 8.90222 75.2694 9.64508Q76.0891 10.4008 76.5886 11.4574Q77.0881 12.5141 77.2034 13.8205L74.8595 13.8205Q74.7187 13.0136 74.4241 12.3284Q74.1295 11.6431 73.6556 11.1564Q73.1689 10.6697 72.5029 10.3944Q71.8368 10.119 70.9531 10.119Q70.1077 10.119 69.4545 10.4072Q68.8013 10.6953 68.3146 11.182Q67.8279 11.6688 67.5077 12.3156Q67.1875 12.9624 66.9826 13.6796Q66.7777 14.3969 66.688 15.1397Q66.5983 15.8826 66.5983 16.5742L66.5983 18.7644Q66.6112 19.4689 66.72 20.2181Q66.8289 20.9674 67.0594 21.6847Q67.29 22.4019 67.6486 23.0423Q68.0072 23.6827 68.5196 24.1694Q69.0191 24.6561 69.6851 24.9443Q70.3511 25.2325 71.1964 25.2453Q71.6831 25.2581 72.2147 25.2069Q72.7462 25.1556 73.2457 25.0019Q73.7452 24.8482 74.1807 24.5857Q74.6162 24.3231 74.9108 23.9004L74.9364 19.7122L71.1452 19.7122L71.1452 17.7142L77.1906 17.7142L77.229 24.5537Z" fill="#0E1318" fill-opacity="1.000000" transform="matrix(1 0 0 1 61.1325 12.2571)"/><path d="M2.6696 4.85354L3.01086 5.97229L2.92003 6L2.92003 5.90504L3.46606 5.90504L3.46606 6L3.37554 6.02872L2.00455 1.70802L2.09506 1.6793L2.09506 1.77426L1.6351 1.77426L1.6351 1.6793L1.72547 1.70847L0.330737 6.02917L0.240369 6L0.240369 5.90504L0.789359 5.90504L0.789359 6L0.698665 5.97185L1.0666 4.78629L2.64908 4.78629L2.6696 4.85354ZM2.48794 4.90895L2.57877 4.88125L2.57877 4.97621L1.13656 4.97621L1.13656 4.88125L1.22725 4.90939L0.859317 6.09496L0.10993 6.09496L1.56597 1.58434L2.16456 1.58434L3.59581 6.09496L2.84972 6.09496L2.48794 4.90895ZM1.19419 4.37548L1.8643 2.20364L2.56146 4.49844L1.15626 4.49844L1.19419 4.37548ZM1.37567 4.43147L1.28493 4.40348L1.28493 4.30852L2.43336 4.30852L2.43336 4.40348L2.3425 4.43108L1.77274 2.55561L1.8636 2.52801L1.95434 2.55601L1.37567 4.43147ZM1.28493 4.40348L2.43336 4.40348L1.8636 2.52801L1.28493 4.40348ZM2.57877 4.88125L1.13656 4.88125L0.789359 6L0.240369 6L1.6351 1.6793L2.09506 1.6793L3.46606 6L2.92003 6L2.57877 4.88125ZM4.2494 1.6793L4.2494 2.15707L4.15444 2.15707L4.15444 2.06211L5.26132 2.06211L5.26132 5.62016L4.15444 5.62016L4.15444 5.5252L4.2494 5.5252L4.2494 6L4.15444 6L4.15444 5.90504L6.76585 5.90504L6.76585 6L6.67089 6L6.67089 5.5252L6.76585 5.5252L6.76585 5.62016L5.63523 5.62016L5.63523 2.06211L6.76585 2.06211L6.76585 2.15707L6.67089 2.15707L6.67089 1.6793L6.76585 1.6793L6.76585 1.77426L4.15444 1.77426L4.15444 1.6793L4.2494 1.6793ZM4.05948 1.58434L6.86081 1.58434L6.86081 2.25203L5.73019 2.25203L5.73019 2.15707L5.82515 2.15707L5.82515 5.5252L5.73019 5.5252L5.73019 5.43024L6.86081 5.43024L6.86081 6.09496L4.05948 6.09496L4.05948 5.43024L5.16636 5.43024L5.16636 5.5252L5.0714 5.5252L5.0714 2.15707L5.16636 2.15707L5.16636 2.25203L4.05948 2.25203L4.05948 1.6793L4.05948 1.58434ZM4.15444 1.6793L6.76585 1.6793L6.76585 2.15707L5.73019 2.15707L5.73019 5.5252L6.76585 5.5252L6.76585 6L4.15444 6L4.15444 5.5252L5.16636 5.5252L5.16636 2.15707L4.15444 2.15707L4.15444 1.6793ZM12.2497 5.90504L12.8016 5.90504L12.8016 6L12.7067 6L12.7067 3.11854L14.0391 3.11854L14.0391 3.2135L13.9441 3.2135L13.9441 2.78915L14.0391 2.78915L14.0391 2.88411L12.7067 2.88411L12.7067 2.56362Q12.7067 2.34599 12.7637 2.17966Q12.8233 2.0061 12.9413 1.89503Q13.0512 1.78851 13.2164 1.73574Q13.3744 1.68524 13.5761 1.68524Q13.7692 1.68524 13.9398 1.71811Q14.108 1.75052 14.2359 1.79419L14.2052 1.88406L14.1113 1.87054L14.1765 1.41651L14.2705 1.43003L14.2458 1.52172Q14.1708 1.50152 14.0988 1.48568Q14.0255 1.46955 13.9522 1.45489Q13.844 1.43497 13.7314 1.42198Q13.6211 1.40926 13.5079 1.40926Q13.239 1.40926 13.0226 1.48416Q12.8109 1.55744 12.6627 1.7002Q12.5115 1.84339 12.4287 2.05644Q12.3446 2.2728 12.3446 2.56362L12.3446 2.88411L11.3653 2.88411L11.3653 2.78915L11.4603 2.78915L11.4603 3.2135L11.3653 3.2135L11.3653 3.11854L12.3446 3.11854L12.3446 6L12.2497 6L12.2497 5.90504ZM12.1547 6.09496L12.1547 3.2135L12.2497 3.2135L12.2497 3.30847L11.2704 3.30847L11.2704 2.69419L12.2497 2.69419L12.2497 2.78915L12.1547 2.78915L12.1547 2.56362Q12.1547 2.2372 12.2517 1.98766Q12.3499 1.73481 12.531 1.56344Q12.7092 1.39165 12.9605 1.30468Q13.207 1.21933 13.5079 1.21934Q13.632 1.21934 13.7532 1.23332Q13.8721 1.24704 13.9894 1.26866Q14.0645 1.28368 14.1396 1.30019Q14.2159 1.31699 14.2952 1.33833L14.3765 1.36022L14.2829 2.01093L14.1746 1.97392Q14.0591 1.93451 13.9039 1.9046Q13.7511 1.87516 13.5761 1.87516Q13.404 1.87516 13.2742 1.91665Q13.1514 1.95587 13.0715 2.03333Q12.9877 2.11219 12.9434 2.24131Q12.8966 2.37767 12.8966 2.56362L12.8966 2.78915L12.8016 2.78915L12.8016 2.69419L14.134 2.69419L14.134 3.30847L12.8016 3.30847L12.8016 3.2135L12.8966 3.2135L12.8966 6.09496L12.2497 6.09496L12.1547 6.09496ZM12.2497 6L12.2497 3.2135L11.3653 3.2135L11.3653 2.78915L12.2497 2.78915L12.2497 2.56362Q12.2497 2.255 12.3402 2.02205Q12.4307 1.7891 12.5969 1.63182Q12.7601 1.47454 12.9915 1.39442Q13.223 1.3143 13.5079 1.3143Q13.6266 1.3143 13.7423 1.32765Q13.858 1.341 13.9708 1.36178Q14.045 1.37661 14.1192 1.39294Q14.1934 1.40926 14.2705 1.43003L14.2052 1.88406Q14.0836 1.84251 13.9219 1.81135Q13.7601 1.7802 13.5761 1.7802Q13.3892 1.7802 13.2453 1.82619Q13.1013 1.87219 13.0064 1.96418Q12.9055 2.05914 12.8535 2.21048Q12.8016 2.36183 12.8016 2.56362L12.8016 2.78915L14.0391 2.78915L14.0391 3.2135L12.8016 3.2135L12.8016 6L12.2497 6ZM15.0094 4.3649L15.0094 4.43019Q15.0094 4.76168 15.1052 5.04357Q15.2001 5.32278 15.3779 5.52836Q15.5518 5.73253 15.8042 5.84841Q16.0569 5.96439 16.3774 5.96439Q16.6948 5.96439 16.9459 5.84849Q17.1974 5.73245 17.3739 5.52836Q17.5486 5.32314 17.6436 5.04357Q17.7395 4.76168 17.7395 4.43019L17.7395 4.3649Q17.7395 4.03333 17.6436 3.7499Q17.5485 3.46892 17.3734 3.26319Q17.1973 3.05958 16.9442 2.94204Q16.6917 2.82476 16.3715 2.82476Q16.0542 2.82476 15.8033 2.94196Q15.552 3.05933 15.3784 3.26319Q15.2002 3.46928 15.1053 3.7499Q15.0094 4.03333 15.0094 4.3649ZM14.8194 4.3649Q14.8194 4.00207 14.9253 3.68903Q15.0322 3.37318 15.2338 3.14008Q15.4342 2.90474 15.7229 2.76988Q16.0121 2.63484 16.3715 2.63484Q16.7337 2.63484 17.0242 2.7698Q17.3143 2.9045 17.518 3.14008Q17.7168 3.37354 17.8235 3.68903Q17.9294 4.00207 17.9294 4.3649L17.9294 4.43019Q17.9294 4.79309 17.8234 5.1047Q17.7167 5.41863 17.5175 5.6526Q17.3142 5.88771 17.0255 6.02094Q16.7365 6.15431 16.3774 6.15431Q16.0154 6.15431 15.725 6.02102Q15.4344 5.88762 15.2343 5.6526Q15.0323 5.41899 14.9254 5.1047Q14.8194 4.79309 14.8194 4.43019L14.8194 4.3649ZM15.3684 4.43019L15.3684 4.3649Q15.3684 4.11823 15.4279 3.89125Q15.4887 3.65936 15.6144 3.48204Q15.7388 3.30197 15.9268 3.19481Q16.1178 3.0859 16.3715 3.0859Q16.6249 3.0859 16.8173 3.19464Q17.0064 3.30152 17.1344 3.48204Q17.2572 3.65968 17.3193 3.89066Q17.3804 4.11792 17.3804 4.3649L17.3804 4.43019Q17.3804 4.67982 17.3209 4.9068Q17.2603 5.13811 17.138 5.31507Q17.0092 5.4968 16.8197 5.60224Q16.6276 5.70918 16.3774 5.70918Q16.1244 5.70918 15.9309 5.60241Q15.7392 5.49666 15.6138 5.31507Q15.4887 5.13869 15.4279 4.9068Q15.3684 4.67982 15.3684 4.43019ZM15.5584 4.43019Q15.5584 4.65535 15.6116 4.85866Q15.6636 5.05706 15.77 5.20711Q15.8701 5.35195 16.0226 5.43612Q16.1733 5.51926 16.3774 5.51926Q16.5783 5.51926 16.7274 5.43629Q16.8792 5.3518 16.9818 5.20711Q17.0851 5.05764 17.1372 4.85866Q17.1905 4.65535 17.1905 4.43019L17.1905 4.3649Q17.1905 4.14301 17.1359 3.93999Q17.0823 3.74067 16.9795 3.59189Q16.876 3.44598 16.7239 3.35998Q16.575 3.27582 16.3715 3.27582Q16.1681 3.27582 16.0208 3.3598Q15.8705 3.44553 15.7694 3.59189Q15.6636 3.74099 15.6116 3.93939Q15.5584 4.1427 15.5584 4.3649L15.5584 4.43019ZM15.4634 4.43019Q15.4634 4.66759 15.5198 4.88273Q15.5762 5.09788 15.6919 5.26109Q15.8047 5.4243 15.9768 5.51926Q16.1489 5.61422 16.3774 5.61422Q16.6029 5.61422 16.7736 5.51926Q16.9442 5.4243 17.0599 5.26109Q17.1727 5.09788 17.2291 4.88273Q17.2854 4.66759 17.2854 4.43019L17.2854 4.3649Q17.2854 4.13047 17.2276 3.91532Q17.1697 3.70018 17.0569 3.53696Q16.9412 3.37375 16.7706 3.27731Q16.6 3.18086 16.3715 3.18086Q16.143 3.18086 15.9738 3.27731Q15.8047 3.37375 15.6919 3.53696Q15.5762 3.70018 15.5198 3.91532Q15.4634 4.13047 15.4634 4.3649L15.4634 4.43019ZM14.9144 4.3649Q14.9144 4.0177 15.0153 3.71947Q15.1162 3.42123 15.3061 3.20163Q15.4931 2.98204 15.7631 2.85592Q16.0332 2.7298 16.3715 2.7298Q16.7127 2.7298 16.9842 2.85592Q17.2558 2.98204 17.4457 3.20163Q17.6326 3.42123 17.7335 3.71947Q17.8344 4.0177 17.8344 4.3649L17.8344 4.43019Q17.8344 4.77738 17.7335 5.07414Q17.6326 5.37089 17.4457 5.59048Q17.2558 5.81008 16.9857 5.93471Q16.7157 6.05935 16.3774 6.05935Q16.0361 6.05935 15.7646 5.93471Q15.4931 5.81008 15.3061 5.59048Q15.1162 5.37089 15.0153 5.07414Q14.9144 4.77738 14.9144 4.43019L14.9144 4.3649ZM20.8108 2.82476Q20.4853 2.82476 20.2323 2.96559Q19.9757 3.10846 19.792 3.35613L19.6309 3.57345L19.6179 3.22295L19.5942 2.79438L19.6891 2.78915L19.6891 2.88411L19.1668 2.88411L19.1668 2.78915L19.2617 2.78915L19.2617 6L19.1668 6L19.1668 5.90504L19.7187 5.90504L19.7187 6L19.6238 6L19.6238 3.92397L19.6294 3.90838Q19.6869 3.74874 19.7752 3.61864Q19.8656 3.48552 19.9879 3.39299Q20.1225 3.28792 20.3028 3.23383Q20.4793 3.18086 20.695 3.18086Q20.8577 3.18086 21.0069 3.19779Q21.1559 3.21468 21.321 3.25138L21.3004 3.34408L21.2063 3.33108L21.2805 2.79396L21.3746 2.80696L21.3372 2.89424Q21.2664 2.86389 21.1149 2.84479Q20.9562 2.82476 20.8108 2.82476ZM20.8108 2.63484Q20.9681 2.63484 21.1387 2.65636Q21.3166 2.6788 21.412 2.71967L21.4786 2.7482L21.3804 3.45912L21.2798 3.43677Q21.1245 3.40225 20.9855 3.3865Q20.847 3.37078 20.695 3.37078Q20.5072 3.37078 20.3573 3.41574Q20.2112 3.45958 20.1025 3.54443Q20.0051 3.61809 19.9323 3.72533Q19.8574 3.8356 19.8081 3.97271L19.7187 3.94055L19.8137 3.94055L19.8137 6.09496L19.0718 6.09496L19.0718 2.69419L19.7789 2.69419L19.8077 3.21592L19.8107 3.29605L19.7158 3.29956L19.6395 3.243Q19.8475 2.96245 20.1399 2.79966Q20.436 2.63484 20.8108 2.63484ZM20.8108 2.7298Q20.9621 2.7298 21.1268 2.75057Q21.2915 2.77135 21.3746 2.80696L21.3004 3.34408Q21.1402 3.30847 20.9962 3.29214Q20.8523 3.27582 20.695 3.27582Q20.4933 3.27582 20.33 3.32479Q20.1668 3.37375 20.0452 3.46871Q19.9354 3.5518 19.8538 3.67199Q19.7721 3.79217 19.7187 3.94055L19.7187 6L19.1668 6L19.1668 2.78915L19.6891 2.78915L19.7128 3.21944L19.7158 3.29956Q19.9116 3.03545 20.1861 2.88263Q20.4606 2.7298 20.8108 2.7298ZM27.0982 3.94216L28.4039 5.9482L28.3244 6L28.3244 5.90504L28.9921 5.90504L28.9921 6L28.9129 6.05247L27.2633 3.5644L28.817 1.62002L28.8912 1.6793L28.8912 1.77426L28.2235 1.77426L28.2235 1.6793L28.2977 1.73854L27.0306 3.32616L26.443 4.05961L26.443 1.6793L26.5379 1.6793L26.5379 1.77426L25.9771 1.77426L25.9771 1.6793L26.072 1.6793L26.072 6L25.9771 6L25.9771 5.90504L26.5379 5.90504L26.5379 6L26.443 6L26.443 4.50414L27.03 3.83735L27.0982 3.94216ZM26.9391 4.04576L27.0187 3.99396L27.0899 4.05671L26.6092 4.60273L26.5379 4.53998L26.6329 4.53998L26.6329 6.09496L25.8821 6.09496L25.8821 1.58434L26.6329 1.58434L26.6329 3.7892L26.5379 3.7892L26.4638 3.72983L26.8821 3.20768L28.1778 1.58434L29.0886 1.58434L27.4549 3.62889L27.3807 3.56961L27.4598 3.51713L29.1689 6.09496L28.2729 6.09496L26.9391 4.04576ZM27.0187 3.99396L26.5379 4.53998L26.5379 6L25.9771 6L25.9771 1.6793L26.5379 1.6793L26.5379 3.7892L26.9563 3.26692L28.2235 1.6793L28.8912 1.6793L27.3807 3.56961L28.9921 6L28.3244 6L27.0187 3.99396ZM29.6211 5.90504L30.1701 5.90504L30.1701 6L30.0751 6L30.0751 3.6731L30.0866 3.6519Q30.1481 3.53866 30.2308 3.44458Q30.3133 3.35077 30.4107 3.27937L30.4121 3.27829L30.4137 3.27726Q30.5344 3.19569 30.6775 3.14854Q30.8225 3.10074 30.9891 3.10074Q31.1785 3.10074 31.3271 3.14648Q31.4839 3.19473 31.5953 3.30258Q31.7046 3.41191 31.7591 3.58221Q31.8111 3.7447 31.8111 3.97319L31.8111 6L31.7161 6L31.7161 5.90504L32.2651 5.90504L32.2651 6L32.1702 6L32.1702 3.96132Q32.1702 3.65642 32.0965 3.43825Q32.0247 3.22541 31.894 3.08937Q31.7644 2.95453 31.5798 2.89078Q31.3886 2.82476 31.1523 2.82476Q30.9805 2.8275 30.8258 2.87541Q30.6713 2.92327 30.5403 3.0106Q30.4529 3.06795 30.3752 3.14563Q30.2964 3.22446 30.2298 3.31871L30.0788 3.53266L30.019 2.79684L30.1137 2.78915L30.1137 2.88411L29.6211 2.88411L29.6211 2.78915L29.716 2.78915L29.716 6L29.6211 6L29.6211 5.90504ZM29.5261 6.09496L29.5261 2.69419L30.2012 2.69419L30.2469 3.25626L30.1523 3.26395L30.0747 3.20919Q30.1506 3.10166 30.2409 3.01134Q30.3324 2.91987 30.4349 2.85258Q30.5888 2.74999 30.7696 2.69399Q30.9503 2.63803 31.1523 2.63484Q31.4205 2.63484 31.6418 2.71126Q31.8697 2.78995 32.0309 2.95779Q32.191 3.12444 32.2765 3.3775Q32.3601 3.62523 32.3601 3.96132L32.3601 6.09496L31.6212 6.09496L31.6212 3.97319Q31.6212 3.77435 31.5782 3.64009Q31.5378 3.51364 31.4631 3.43899Q31.3845 3.36285 31.2713 3.32801Q31.1499 3.29066 30.9891 3.29066Q30.853 3.29066 30.7369 3.32892Q30.6189 3.36782 30.52 3.43463L30.4668 3.35595L30.523 3.43252Q30.4423 3.4917 30.3734 3.56999Q30.3048 3.64803 30.2535 3.74251L30.1701 3.69721L30.265 3.69721L30.265 6.09496L29.6211 6.09496L29.5261 6.09496ZM29.6211 6L29.6211 2.78915L30.1137 2.78915L30.1523 3.26395Q30.2235 3.16306 30.3081 3.07848Q30.3926 2.99391 30.4876 2.93159Q30.63 2.83663 30.7977 2.7847Q30.9654 2.73277 31.1523 2.7298Q31.4046 2.7298 31.6108 2.80102Q31.817 2.87224 31.9625 3.02358Q32.1079 3.17493 32.1865 3.40788Q32.2651 3.64083 32.2651 3.96132L32.2651 6L31.7161 6L31.7161 3.97319Q31.7161 3.75953 31.6687 3.61115Q31.6212 3.46278 31.5292 3.37078Q31.4342 3.27879 31.2992 3.23724Q31.1642 3.1957 30.9891 3.1957Q30.8378 3.1957 30.7072 3.23873Q30.5766 3.28176 30.4668 3.35595Q30.3778 3.42123 30.3021 3.50729Q30.2265 3.59335 30.1701 3.69721L30.1701 6L29.6211 6ZM33.1998 4.3649L33.1998 4.43019Q33.1998 4.76168 33.2957 5.04357Q33.3906 5.32278 33.5684 5.52836Q33.7422 5.73253 33.9947 5.84841Q34.2473 5.96439 34.5678 5.96439Q34.8853 5.96439 35.1364 5.84849Q35.3878 5.73245 35.5643 5.52836Q35.739 5.32314 35.8341 5.04357Q35.9299 4.76168 35.9299 4.43019L35.9299 4.3649Q35.9299 4.03333 35.834 3.7499Q35.739 3.46892 35.5638 3.26319Q35.3877 3.05958 35.1347 2.94204Q34.8822 2.82476 34.5619 2.82476Q34.2447 2.82476 33.9938 2.94196Q33.7424 3.05933 33.5689 3.26319Q33.3906 3.46928 33.2957 3.7499Q33.1998 4.03333 33.1998 4.3649ZM33.0099 4.3649Q33.0099 4.00207 33.1158 3.68903Q33.2227 3.37318 33.4243 3.14008Q33.6246 2.90474 33.9134 2.76988Q34.2025 2.63484 34.5619 2.63484Q34.9242 2.63484 35.2147 2.7698Q35.5047 2.9045 35.7085 3.14008Q35.9072 3.37354 36.014 3.68903Q36.1199 4.00207 36.1199 4.3649L36.1199 4.43019Q36.1199 4.79309 36.0139 5.1047Q35.9072 5.41863 35.708 5.6526Q35.5046 5.88771 35.216 6.02094Q34.927 6.15431 34.5678 6.15431Q34.2058 6.15431 33.9154 6.02102Q33.6248 5.88762 33.4248 5.6526Q33.2227 5.41899 33.1159 5.1047Q33.0099 4.79309 33.0099 4.43019L33.0099 4.3649ZM33.5589 4.43019L33.5589 4.3649Q33.5589 4.11823 33.6184 3.89125Q33.6791 3.65936 33.8049 3.48204Q33.9293 3.30197 34.1172 3.19481Q34.3082 3.0859 34.5619 3.0859Q34.8154 3.0859 35.0078 3.19464Q35.1969 3.30152 35.3249 3.48204Q35.4476 3.65968 35.5097 3.89066Q35.5709 4.11792 35.5709 4.3649L35.5709 4.43019Q35.5709 4.67982 35.5114 4.9068Q35.4508 5.13811 35.3285 5.31507Q35.1996 5.4968 35.0102 5.60224Q34.818 5.70918 34.5678 5.70918Q34.3149 5.70918 34.1214 5.60241Q33.9297 5.49666 33.8042 5.31507Q33.6791 5.13869 33.6184 4.9068Q33.5589 4.67982 33.5589 4.43019ZM33.7488 4.43019Q33.7488 4.65535 33.8021 4.85866Q33.8541 5.05706 33.9605 5.20711Q34.0606 5.35195 34.2131 5.43612Q34.3638 5.51926 34.5678 5.51926Q34.7687 5.51926 34.9178 5.43629Q35.0696 5.3518 35.1722 5.20711Q35.2755 5.05764 35.3277 4.85866Q35.3809 4.65535 35.3809 4.43019L35.3809 4.3649Q35.3809 4.14301 35.3263 3.93999Q35.2727 3.74067 35.1699 3.59189Q35.0665 3.44598 34.9143 3.35998Q34.7654 3.27582 34.5619 3.27582Q34.3586 3.27582 34.2113 3.3598Q34.0609 3.44553 33.9598 3.59189Q33.8541 3.74099 33.8021 3.93939Q33.7488 4.1427 33.7488 4.3649L33.7488 4.43019ZM33.6539 4.43019Q33.6539 4.66759 33.7102 4.88273Q33.7666 5.09788 33.8824 5.26109Q33.9951 5.4243 34.1672 5.51926Q34.3394 5.61422 34.5678 5.61422Q34.7934 5.61422 34.964 5.51926Q35.1346 5.4243 35.2504 5.26109Q35.3631 5.09788 35.4195 4.88273Q35.4759 4.66759 35.4759 4.43019L35.4759 4.3649Q35.4759 4.13047 35.418 3.91532Q35.3602 3.70018 35.2474 3.53696Q35.1317 3.37375 34.961 3.27731Q34.7904 3.18086 34.5619 3.18086Q34.3334 3.18086 34.1643 3.27731Q33.9951 3.37375 33.8824 3.53696Q33.7666 3.70018 33.7102 3.91532Q33.6539 4.13047 33.6539 4.3649L33.6539 4.43019ZM33.1049 4.3649Q33.1049 4.0177 33.2058 3.71947Q33.3067 3.42123 33.4966 3.20163Q33.6835 2.98204 33.9536 2.85592Q34.2236 2.7298 34.5619 2.7298Q34.9032 2.7298 35.1747 2.85592Q35.4462 2.98204 35.6362 3.20163Q35.8231 3.42123 35.924 3.71947Q36.0249 4.0177 36.0249 4.3649L36.0249 4.43019Q36.0249 4.77738 35.924 5.07414Q35.8231 5.37089 35.6362 5.59048Q35.4462 5.81008 35.1762 5.93471Q34.9061 6.05935 34.5678 6.05935Q34.2266 6.05935 33.9551 5.93471Q33.6835 5.81008 33.4966 5.59048Q33.3067 5.37089 33.2058 5.07414Q33.1049 4.77738 33.1049 4.43019L33.1049 4.3649ZM37.2059 5.90504L37.6391 5.90504L37.6391 6L37.5471 5.97681L38.0426 4.00934L38.1347 4.03254L38.041 4.01747L38.1211 3.51893L38.3085 3.51838L38.3916 4.01693L38.2979 4.03254L38.39 4.00908L38.8915 5.97654L38.7994 6L38.7994 5.90504L39.2327 5.90504L39.2327 6L39.1398 5.98026L39.8223 2.76941L39.9152 2.78915L39.9152 2.88411L39.4286 2.88411L39.4286 2.78915L39.5221 2.80542L39.166 4.85301L39.0861 5.35611L38.8987 5.35718L38.8127 4.8527L38.9063 4.83673L38.8141 4.8597L38.3037 2.81212L38.3959 2.78915L38.3959 2.88411L38.0427 2.88411L38.0427 2.78915L38.1348 2.81224L37.6215 4.85983L37.5293 4.83673L37.6229 4.85303L37.5428 5.313L37.3552 5.31004L37.2899 4.85008L37.3839 4.83673L37.2905 4.85379L36.9166 2.80621L37.01 2.78915L37.01 2.88411L36.5234 2.88411L36.5234 2.78915L36.6162 2.76941L37.2988 5.98026L37.2059 6L37.2059 5.90504ZM37.129 6.09496L36.4061 2.69419L37.0892 2.69419L37.4777 4.82153L37.5432 5.28335L37.4492 5.2967L37.3557 5.2804L37.4364 4.81701L37.9686 2.69419L38.4701 2.69419L38.9993 4.81724L39.0859 5.32524L38.9923 5.34121L38.8985 5.32632L38.9789 4.82046L39.3487 2.69419L40.0325 2.69419L39.3096 6.09496L38.7257 6.09496L38.2049 4.05211L38.1212 3.54961L38.2148 3.534L38.3086 3.54906L38.2278 4.05171L37.7132 6.09496L37.2059 6.09496L37.129 6.09496ZM37.2059 6L36.5234 2.78915L37.01 2.78915L37.3839 4.83673L37.4492 5.2967L37.5293 4.83673L38.0427 2.78915L38.3959 2.78915L38.9063 4.83673L38.9923 5.34121L39.0725 4.83673L39.4286 2.78915L39.9152 2.78915L39.2327 6L38.7994 6L38.2979 4.03254L38.2148 3.534L38.1347 4.03254L37.6391 6L37.2059 6ZM40.7164 1.4419L40.7164 1.91967L40.6214 1.91967L40.6214 1.82471L41.8084 1.82471L41.8084 5.62016L40.6214 5.62016L40.6214 5.5252L40.7164 5.5252L40.7164 6L40.6214 6L40.6214 5.90504L43.31 5.90504L43.31 6L43.215 6L43.215 5.5252L43.31 5.5252L43.31 5.62016L42.1675 5.62016L42.1675 1.4419L42.2625 1.4419L42.2625 1.53686L40.6214 1.53686L40.6214 1.4419L40.7164 1.4419ZM40.5265 1.34694L42.3574 1.34694L42.3574 5.5252L42.2625 5.5252L42.2625 5.43024L43.4049 5.43024L43.4049 6.09496L40.5265 6.09496L40.5265 5.43024L41.7135 5.43024L41.7135 5.5252L41.6185 5.5252L41.6185 1.91967L41.7135 1.91967L41.7135 2.01463L40.5265 2.01463L40.5265 1.4419L40.5265 1.34694ZM40.6214 1.4419L42.2625 1.4419L42.2625 5.5252L43.31 5.5252L43.31 6L40.6214 6L40.6214 5.5252L41.7135 5.5252L41.7135 1.91967L40.6214 1.91967L40.6214 1.4419ZM45.5919 5.96439Q46.0348 5.96439 46.3315 5.78915Q46.6316 5.61189 46.7797 5.38691L46.8591 5.43914L46.8007 5.51406L46.4654 5.25292L46.5237 5.178L46.5989 5.23606Q46.4347 5.44848 46.1877 5.57682Q45.9386 5.70622 45.6216 5.70622Q45.3786 5.70622 45.176 5.61471Q44.9738 5.52339 44.8298 5.36311Q44.6916 5.21524 44.6123 5.02101Q44.5342 4.8297 44.5121 4.58101L44.5117 4.57682L44.5117 4.45689L46.9006 4.45689L46.9006 4.55185L46.8056 4.55185L46.8056 4.30555Q46.8056 3.98388 46.7249 3.70914Q46.6457 3.4394 46.4854 3.24043Q46.3275 3.04717 46.0877 2.93616Q45.847 2.82476 45.5207 2.82476Q45.2642 2.82476 45.0196 2.92982Q44.7744 3.03511 44.5828 3.23221Q44.388 3.43258 44.2703 3.72253Q44.1527 4.01249 44.1527 4.38271L44.1527 4.50734Q44.1527 4.82456 44.2588 5.0926Q44.3646 5.35986 44.5532 5.55399Q44.7411 5.74748 45.0061 5.8557Q45.2723 5.96439 45.5919 5.96439ZM45.5919 6.15431Q45.235 6.15431 44.9343 6.03153Q44.6326 5.90829 44.4169 5.68633Q44.2019 5.465 44.0822 5.1625Q43.9628 4.86078 43.9628 4.50734L43.9628 4.38271Q43.9628 3.97543 44.0944 3.65112Q44.226 3.32679 44.4466 3.09984Q44.6646 2.87555 44.9446 2.75531Q45.2252 2.63484 45.5207 2.63484Q45.8888 2.63484 46.1674 2.76381Q46.4469 2.89317 46.6333 3.12129Q46.8172 3.34965 46.9071 3.6556Q46.9956 3.95656 46.9956 4.30555L46.9956 4.64681L44.6067 4.64681L44.6067 4.55185L44.7017 4.55185L44.7017 4.57263L44.6067 4.57263L44.7013 4.56424Q44.7208 4.78442 44.7881 4.94921Q44.8542 5.11108 44.9711 5.23622Q45.0884 5.36676 45.2541 5.44162Q45.4195 5.5163 45.6216 5.5163Q45.8922 5.5163 46.1001 5.40829Q46.31 5.29923 46.4486 5.11994L46.5069 5.04451L46.9866 5.41811L46.9384 5.49137Q46.766 5.75306 46.4281 5.95267Q46.0867 6.15431 45.5919 6.15431ZM45.5207 3.0859Q45.754 3.0859 45.927 3.17325Q46.098 3.25959 46.2118 3.40006Q46.3236 3.53818 46.3854 3.72528Q46.4466 3.91043 46.4466 4.07408L46.4466 4.19575L44.5146 4.19575L44.5306 4.08701Q44.5653 3.85023 44.6531 3.66662Q44.7417 3.48132 44.8719 3.35112Q45.0047 3.22166 45.1701 3.15383Q45.3358 3.0859 45.5207 3.0859ZM45.5207 3.27582Q45.3732 3.27582 45.2422 3.32956Q45.1109 3.3834 45.0062 3.48541Q44.899 3.59261 44.8244 3.74857Q44.749 3.90623 44.7185 4.11457L44.6245 4.10079L44.6245 4.00583L46.3516 4.00583L46.3516 4.10079L46.2566 4.10079L46.2566 4.07408Q46.2566 3.94099 46.2051 3.78487Q46.1541 3.63071 46.0641 3.51956Q45.9761 3.41076 45.8414 3.34279Q45.7088 3.27582 45.5207 3.27582ZM45.5207 3.18086Q45.3545 3.18086 45.2061 3.2417Q45.0578 3.30253 44.9391 3.41826Q44.8204 3.53696 44.7388 3.7076Q44.6572 3.87823 44.6245 4.10079L46.3516 4.10079L46.3516 4.07408Q46.3516 3.92571 46.2952 3.75508Q46.2388 3.58444 46.1379 3.45981Q46.0371 3.33517 45.8842 3.25802Q45.7314 3.18086 45.5207 3.18086ZM45.5919 6.05935Q45.2536 6.05935 44.9702 5.94362Q44.6868 5.82788 44.485 5.62016Q44.2832 5.41243 44.1705 5.12755Q44.0577 4.84267 44.0577 4.50734L44.0577 4.38271Q44.0577 3.99396 44.1824 3.68682Q44.307 3.37969 44.5147 3.16602Q44.7195 2.95533 44.9821 2.84257Q45.2447 2.7298 45.5207 2.7298Q45.8679 2.7298 46.1276 2.84998Q46.3872 2.97017 46.5593 3.18086Q46.7314 3.39452 46.816 3.68237Q46.9006 3.97022 46.9006 4.30555L46.9006 4.55185L44.6067 4.55185L44.6067 4.57263Q44.6275 4.80706 44.7002 4.98511Q44.7729 5.16316 44.9005 5.29967Q45.0311 5.44508 45.215 5.52817Q45.399 5.61126 45.6216 5.61126Q45.9154 5.61126 46.1439 5.49256Q46.3724 5.37385 46.5237 5.178L46.8591 5.43914Q46.6988 5.68248 46.3798 5.87091Q46.0608 6.05935 45.5919 6.05935ZM47.8026 4.36787L47.8026 4.43019Q47.8026 4.7601 47.8904 5.04466Q47.9775 5.32692 48.1336 5.53318Q48.287 5.73596 48.5043 5.85075Q48.7194 5.96439 48.9867 5.96439Q49.2629 5.96439 49.4668 5.87197Q49.6691 5.78024 49.8153 5.60157L49.9668 5.41643L50.0073 5.99335L49.9125 6L49.9125 5.90504L50.417 5.90504L50.417 6L50.3221 6L50.3221 1.4419L50.417 1.4419L50.417 1.53686L49.868 1.53686L49.868 1.4419L49.963 1.4419L49.963 3.3639L49.7958 3.16838Q49.6524 3.00061 49.4568 2.9129Q49.2602 2.82476 48.9926 2.82476Q48.7217 2.82476 48.5047 2.93598Q48.2864 3.0479 48.1332 3.24756Q47.9745 3.45079 47.8891 3.73492Q47.8026 4.02276 47.8026 4.36787ZM47.6127 4.36787Q47.6127 3.99484 47.7072 3.68027Q47.8029 3.362 47.9825 3.13197Q48.1617 2.89838 48.4181 2.76696Q48.6759 2.63484 48.9926 2.63484Q49.3008 2.63484 49.5345 2.73959Q49.7691 2.84476 49.9402 3.04497L49.868 3.10667L49.7731 3.10667L49.7731 1.34694L50.512 1.34694L50.512 6.09496L49.824 6.09496L49.7941 5.66835L49.8888 5.6617L49.9623 5.72184Q49.788 5.93488 49.5452 6.04494Q49.304 6.15431 48.9867 6.15431Q48.6723 6.15431 48.4156 6.01868Q48.161 5.88419 47.9821 5.64779Q47.8059 5.41486 47.7089 5.10064Q47.6127 4.78873 47.6127 4.43019L47.6127 4.36787ZM48.1617 4.43019L48.1617 4.36787Q48.1617 4.1223 48.2147 3.89929Q48.269 3.67096 48.3849 3.49386Q48.501 3.31478 48.6855 3.20839Q48.8722 3.10074 49.1291 3.10074Q49.429 3.10074 49.6345 3.2439Q49.8338 3.38282 49.9514 3.59832L49.963 3.61958L49.963 5.15619L49.9527 5.17643Q49.835 5.40868 49.634 5.54703Q49.4287 5.68841 49.1232 5.68841Q48.8694 5.68841 48.6843 5.58238Q48.5011 5.47746 48.3847 5.2979Q48.2692 5.12459 48.2148 4.89742Q48.1617 4.67583 48.1617 4.43019ZM48.3516 4.43019Q48.3516 4.65341 48.3995 4.8532Q48.446 5.04742 48.5441 5.1946Q48.6354 5.33553 48.7787 5.41757Q48.92 5.49849 49.1232 5.49849Q49.3696 5.49849 49.5263 5.3906Q49.6874 5.27967 49.7833 5.09054L49.868 5.13349L49.7731 5.13349L49.7731 3.64379L49.868 3.64379L49.7847 3.68927Q49.6886 3.51306 49.5259 3.39973Q49.3693 3.29066 49.1291 3.29066Q48.9231 3.29066 48.7804 3.37293Q48.6355 3.45646 48.5438 3.59787Q48.4461 3.7472 48.3995 3.94322Q48.3516 4.14457 48.3516 4.36787L48.3516 4.43019ZM48.2567 4.43019Q48.2567 4.66462 48.3071 4.87531Q48.3576 5.08601 48.4644 5.24625Q48.5683 5.4065 48.7315 5.49997Q48.8947 5.59345 49.1232 5.59345Q49.3992 5.59345 49.5802 5.46881Q49.7612 5.34418 49.868 5.13349L49.868 3.64379Q49.7612 3.44794 49.5802 3.32182Q49.3992 3.1957 49.1291 3.1957Q48.8977 3.1957 48.733 3.29066Q48.5683 3.38562 48.4644 3.54587Q48.3576 3.70908 48.3071 3.92126Q48.2567 4.13343 48.2567 4.36787L48.2567 4.43019ZM47.7077 4.36787Q47.7077 4.0088 47.7982 3.7076Q47.8887 3.40639 48.0578 3.18976Q48.224 2.97314 48.4614 2.85147Q48.6988 2.7298 48.9926 2.7298Q49.2805 2.7298 49.4956 2.82624Q49.7108 2.92269 49.868 3.10667L49.868 1.4419L50.417 1.4419L50.417 6L49.9125 6L49.8888 5.6617Q49.7286 5.85756 49.506 5.95845Q49.2834 6.05935 48.9867 6.05935Q48.6959 6.05935 48.4599 5.93471Q48.224 5.81008 48.0578 5.59048Q47.8917 5.37089 47.7997 5.07265Q47.7077 4.77442 47.7077 4.43019L47.7077 4.36787ZM51.4437 4.36787L51.4437 4.43019Q51.4437 4.76055 51.5288 5.04549Q51.6129 5.32727 51.7687 5.53318Q51.9195 5.73606 52.1377 5.85064Q52.3544 5.96439 52.6248 5.96439Q52.7884 5.96439 52.9286 5.93003Q53.0678 5.89589 53.1816 5.83362Q53.2529 5.79397 53.3155 5.74073Q53.3799 5.68591 53.4376 5.61994L53.604 5.42974L53.604 5.95845Q53.604 6.1832 53.5388 6.35941Q53.472 6.53977 53.3468 6.66156Q53.2193 6.78573 53.0426 6.84907Q52.8698 6.91103 52.6574 6.91103Q52.5381 6.91103 52.419 6.88688Q52.2984 6.86244 52.1786 6.80739Q52.0584 6.75219 51.9426 6.66054Q51.828 6.56979 51.7208 6.44046L51.7939 6.37984L51.8657 6.44196L51.5808 6.77135L51.509 6.70924L51.5868 6.65488Q51.687 6.79834 51.826 6.89551Q51.969 6.99547 52.124 7.05358Q52.28 7.11596 52.4305 7.14245Q52.5826 7.1692 52.699 7.1692Q52.9852 7.1692 53.219 7.08571Q53.4493 7.00344 53.6158 6.84518Q53.7788 6.68763 53.8706 6.46003Q53.9631 6.23083 53.9631 5.93175L53.9631 2.78915L54.0581 2.78915L54.0581 2.88411L53.5595 2.88411L53.5595 2.78915L53.6542 2.79637L53.6091 3.38859L53.4584 3.19826Q53.4065 3.1327 53.348 3.07827Q53.2908 3.02511 53.2273 2.98541L53.2263 2.9848L53.2254 2.98417Q53.1074 2.90639 52.9601 2.86587Q52.8108 2.82476 52.6307 2.82476Q52.3539 2.82476 52.1369 2.93598Q51.9185 3.0479 51.7654 3.24756Q51.61 3.45003 51.5275 3.7341Q51.4437 4.02232 51.4437 4.36787ZM51.2538 4.36787Q51.2538 3.99528 51.3451 3.68109Q51.4376 3.36275 51.6147 3.13197Q51.7939 2.89838 52.0503 2.76696Q52.3081 2.63484 52.6307 2.63484Q52.8364 2.63484 53.0105 2.68276Q53.1868 2.73126 53.3299 2.8256L53.2776 2.90488L53.328 2.82436Q53.4069 2.87368 53.4773 2.93922Q53.5464 3.00349 53.6073 3.08037L53.5328 3.13932L53.4381 3.1321L53.4715 2.69419L54.153 2.69419L54.153 5.93175Q54.153 6.26771 54.0467 6.53112Q53.9398 6.79613 53.7466 6.98281Q53.5511 7.16878 53.2829 7.26456Q53.0181 7.35912 52.699 7.35912Q52.566 7.35912 52.3976 7.32949Q52.2277 7.2996 52.0573 7.23141Q51.8799 7.16488 51.7172 7.05117Q51.5506 6.93469 51.4311 6.76359L51.3888 6.70301L51.7954 6.23292L51.867 6.31923Q51.9615 6.43323 52.0605 6.51163Q52.1584 6.58913 52.2579 6.63482Q52.3577 6.68067 52.4567 6.70074Q52.5571 6.72111 52.6574 6.72111Q52.8368 6.72111 52.9785 6.67029Q53.1164 6.62087 53.2144 6.52544Q53.3088 6.43357 53.3607 6.29345Q53.4141 6.14916 53.4141 5.95845L53.4141 5.68248L53.5091 5.68248L53.5806 5.74501Q53.5136 5.82149 53.4386 5.88536Q53.3617 5.95083 53.2728 6.0002Q53.1372 6.07443 52.9738 6.11449Q52.8113 6.15431 52.6248 6.15431Q52.3076 6.15431 52.0494 6.01879Q51.7929 5.8841 51.6172 5.64779Q51.4407 5.4145 51.3468 5.09981Q51.2538 4.78829 51.2538 4.43019L51.2538 4.36787ZM51.8028 4.43019L51.8028 4.36787Q51.8028 4.12262 51.8542 3.8999Q51.9069 3.67124 52.023 3.49386Q52.1391 3.31478 52.3236 3.20839Q52.5103 3.10074 52.7672 3.10074Q52.9178 3.10074 53.044 3.13894Q53.1695 3.17693 53.2727 3.24351L53.2736 3.24409L53.2745 3.24468Q53.377 3.31415 53.4566 3.40691Q53.5347 3.49803 53.593 3.60827L53.604 3.62911L53.604 5.14757L53.5935 5.16801Q53.5354 5.28105 53.4576 5.37505Q53.3782 5.471 53.2787 5.54067Q53.1734 5.61201 53.0451 5.65031Q52.9176 5.68841 52.7613 5.68841Q52.5075 5.68841 52.3224 5.58238Q52.1392 5.47746 52.0228 5.2979Q51.9071 5.12432 51.8542 4.89681Q51.8028 4.67551 51.8028 4.43019ZM51.9927 4.43019Q51.9927 4.65373 52.0392 4.85382Q52.0842 5.0477 52.1822 5.1946Q52.2735 5.33553 52.4168 5.41757Q52.558 5.49849 52.7613 5.49849Q52.8898 5.49849 52.9908 5.46834Q53.091 5.43839 53.1698 5.38509Q53.2483 5.33013 53.3113 5.25396Q53.3759 5.17585 53.4246 5.08115L53.5091 5.12458L53.4141 5.12458L53.4141 3.6527L53.5091 3.6527L53.4252 3.69713Q53.3767 3.60557 53.3124 3.53051Q53.2494 3.45709 53.168 3.40192L53.2212 3.3233L53.1698 3.4031Q53.089 3.35098 52.989 3.32072Q52.8897 3.29066 52.7672 3.29066Q52.5612 3.29066 52.4185 3.37293Q52.2736 3.45646 52.1819 3.59787Q52.0844 3.74692 52.0392 3.94261Q51.9927 4.14425 51.9927 4.36787L51.9927 4.43019ZM51.8977 4.43019Q51.8977 4.66462 51.9467 4.87531Q51.9957 5.08601 52.1025 5.24625Q52.2064 5.4065 52.3696 5.49997Q52.5328 5.59345 52.7613 5.59345Q52.9037 5.59345 53.018 5.55932Q53.1322 5.5252 53.2242 5.46288Q53.3132 5.40056 53.3845 5.3145Q53.4557 5.22845 53.5091 5.12458L53.5091 3.6527Q53.4557 3.5518 53.3845 3.46871Q53.3132 3.38562 53.2212 3.3233Q53.1292 3.26395 53.0165 3.22983Q52.9037 3.1957 52.7672 3.1957Q52.5357 3.1957 52.371 3.29066Q52.2064 3.38562 52.1025 3.54587Q51.9957 3.70908 51.9467 3.92126Q51.8977 4.13343 51.8977 4.36787L51.8977 4.43019ZM51.3487 4.36787Q51.3487 4.0088 51.4363 3.7076Q51.5238 3.40639 51.69 3.18976Q51.8562 2.97314 52.0936 2.85147Q52.331 2.7298 52.6307 2.7298Q52.8236 2.7298 52.9853 2.77431Q53.1471 2.81883 53.2776 2.90488Q53.3488 2.9494 53.4126 3.00875Q53.4764 3.0681 53.5328 3.13932L53.5595 2.78915L54.0581 2.78915L54.0581 5.93175Q54.0581 6.24927 53.9587 6.49557Q53.8593 6.74188 53.6812 6.91399Q53.5002 7.08611 53.2509 7.17514Q53.0016 7.26416 52.699 7.26416Q52.5743 7.26416 52.4141 7.23597Q52.2538 7.20778 52.0906 7.14249Q51.9244 7.08017 51.7716 6.97334Q51.6188 6.86651 51.509 6.70924L51.7939 6.37984Q51.8948 6.50151 52.0016 6.58608Q52.1084 6.67066 52.2182 6.72111Q52.328 6.77155 52.4378 6.79381Q52.5476 6.81607 52.6574 6.81607Q52.8533 6.81607 53.0105 6.75968Q53.1678 6.7033 53.2806 6.5935Q53.3904 6.48667 53.4497 6.32643Q53.5091 6.16618 53.5091 5.95845L53.5091 5.68248Q53.4468 5.7537 53.377 5.81305Q53.3073 5.8724 53.2272 5.91691Q53.1025 5.98516 52.9512 6.02226Q52.7999 6.05935 52.6248 6.05935Q52.331 6.05935 52.0936 5.93471Q51.8562 5.81008 51.693 5.59048Q51.5268 5.37089 51.4378 5.07265Q51.3487 4.77442 51.3487 4.43019L51.3487 4.36787ZM56.5062 5.96439Q56.9491 5.96439 57.2458 5.78915Q57.5459 5.61189 57.694 5.38691L57.7733 5.43914L57.715 5.51406L57.3797 5.25292L57.438 5.178L57.5131 5.23606Q57.349 5.44848 57.1019 5.57682Q56.8529 5.70622 56.5359 5.70622Q56.2929 5.70622 56.0902 5.61471Q55.888 5.52339 55.7441 5.36311Q55.6059 5.21524 55.5265 5.02101Q55.4484 4.8297 55.4264 4.58101L55.426 4.57682L55.426 4.45689L57.8149 4.45689L57.8149 4.55185L57.7199 4.55185L57.7199 4.30555Q57.7199 3.98388 57.6392 3.70914Q57.5599 3.4394 57.3997 3.24043Q57.2418 3.04717 57.0019 2.93616Q56.7613 2.82476 56.435 2.82476Q56.1785 2.82476 55.9338 2.92982Q55.6886 3.03511 55.4971 3.23221Q55.3023 3.43258 55.1846 3.72253Q55.067 4.01249 55.067 4.38271L55.067 4.50734Q55.067 4.82456 55.1731 5.0926Q55.2788 5.35986 55.4674 5.55399Q55.6554 5.74748 55.9204 5.8557Q56.1865 5.96439 56.5062 5.96439ZM56.5062 6.15431Q56.1493 6.15431 55.8486 6.03153Q55.5468 5.90829 55.3312 5.68633Q55.1162 5.465 54.9965 5.1625Q54.877 4.86078 54.877 4.50734L54.877 4.38271Q54.877 3.97543 55.0086 3.65112Q55.1402 3.32679 55.3609 3.09984Q55.5789 2.87555 55.8589 2.75531Q56.1395 2.63484 56.435 2.63484Q56.8031 2.63484 57.0817 2.76381Q57.3612 2.89317 57.5476 3.12129Q57.7315 3.34965 57.8214 3.6556Q57.9098 3.95656 57.9098 4.30555L57.9098 4.64681L55.521 4.64681L55.521 4.55185L55.6159 4.55185L55.6159 4.57263L55.521 4.57263L55.6156 4.56424Q55.6351 4.78442 55.7024 4.94921Q55.7685 5.11108 55.8854 5.23622Q56.0026 5.36676 56.1684 5.44162Q56.3338 5.5163 56.5359 5.5163Q56.8065 5.5163 57.0144 5.40829Q57.2243 5.29923 57.3629 5.11994L57.4211 5.04451L57.9009 5.41811L57.8526 5.49137Q57.6803 5.75306 57.3424 5.95267Q57.001 6.15431 56.5062 6.15431ZM56.435 3.0859Q56.6683 3.0859 56.8413 3.17325Q57.0123 3.25959 57.126 3.40006Q57.2378 3.53818 57.2997 3.72528Q57.3608 3.91043 57.3608 4.07408L57.3608 4.19575L55.4289 4.19575L55.4448 4.08701Q55.4796 3.85023 55.5674 3.66662Q55.656 3.48132 55.7862 3.35112Q55.919 3.22166 56.0844 3.15383Q56.2501 3.0859 56.435 3.0859ZM56.435 3.27582Q56.2875 3.27582 56.1564 3.32956Q56.0251 3.3834 55.9205 3.48541Q55.8133 3.59261 55.7387 3.74857Q55.6633 3.90623 55.6327 4.11457L55.5388 4.10079L55.5388 4.00583L57.2659 4.00583L57.2659 4.10079L57.1709 4.10079L57.1709 4.07408Q57.1709 3.94099 57.1193 3.78487Q57.0684 3.63071 56.9784 3.51956Q56.8903 3.41076 56.7557 3.34279Q56.6231 3.27582 56.435 3.27582ZM56.435 3.18086Q56.2688 3.18086 56.1204 3.2417Q55.972 3.30253 55.8533 3.41826Q55.7346 3.53696 55.653 3.7076Q55.5714 3.87823 55.5388 4.10079L57.2659 4.10079L57.2659 4.07408Q57.2659 3.92571 57.2095 3.75508Q57.1531 3.58444 57.0522 3.45981Q56.9513 3.33517 56.7985 3.25802Q56.6457 3.18086 56.435 3.18086ZM56.5062 6.05935Q56.1679 6.05935 55.8845 5.94362Q55.6011 5.82788 55.3993 5.62016Q55.1975 5.41243 55.0848 5.12755Q54.972 4.84267 54.972 4.50734L54.972 4.38271Q54.972 3.99396 55.0966 3.68682Q55.2213 3.37969 55.429 3.16602Q55.6338 2.95533 55.8964 2.84257Q56.159 2.7298 56.435 2.7298Q56.7822 2.7298 57.0418 2.84998Q57.3015 2.97017 57.4736 3.18086Q57.6457 3.39452 57.7303 3.68237Q57.8149 3.97022 57.8149 4.30555L57.8149 4.55185L55.521 4.55185L55.521 4.57263Q55.5418 4.80706 55.6145 4.98511Q55.6872 5.16316 55.8148 5.29967Q55.9453 5.44508 56.1293 5.52817Q56.3133 5.61126 56.5359 5.61126Q56.8297 5.61126 57.0582 5.49256Q57.2867 5.37385 57.438 5.178L57.7733 5.43914Q57.6131 5.68248 57.2941 5.87091Q56.9751 6.05935 56.5062 6.05935ZM65.0644 5.43374L65.0555 3.84909L65.1504 3.84855L65.1504 3.94351L63.7497 3.94351L63.7497 3.84855L63.8447 3.84855L63.8447 4.31148L63.7497 4.31148L63.7497 4.21652L64.7237 4.21652L64.717 5.31195L64.7001 5.33616Q64.6203 5.45067 64.5021 5.52195Q64.3912 5.58879 64.2643 5.62783Q64.1394 5.66628 64.0066 5.67907Q63.8777 5.6915 63.7591 5.68838Q63.5454 5.68515 63.3737 5.61087Q63.2034 5.53716 63.0751 5.41219Q62.9469 5.29036 62.8568 5.12944Q62.769 4.97277 62.7127 4.79754Q62.6569 4.62381 62.6305 4.44236Q62.6044 4.26282 62.6013 4.09362L62.6013 3.58444Q62.6013 3.41849 62.6228 3.2407Q62.6444 3.06112 62.694 2.8877Q62.7438 2.71321 62.8219 2.55562Q62.903 2.39177 63.0268 2.26797Q63.1521 2.14265 63.3197 2.06871Q63.4894 1.99386 63.7052 1.99386Q63.9288 1.99386 64.1006 2.06486Q64.2724 2.13589 64.3985 2.26204Q64.5215 2.3883 64.5967 2.56321Q64.6693 2.73219 64.7039 2.9301L64.6103 2.94643L64.6103 2.85147L65.1534 2.85147L65.1534 2.94643L65.0588 2.95477Q65.0336 2.66899 64.9251 2.43951Q64.8172 2.2114 64.6409 2.04884Q64.4653 1.8897 64.2275 1.80259Q63.9881 1.71491 63.7023 1.71491Q63.446 1.71491 63.2422 1.78928Q63.037 1.86414 62.8769 1.9911Q62.7138 2.12109 62.5974 2.297Q62.4786 2.47658 62.3993 2.68625Q62.3195 2.89713 62.281 3.12683Q62.2421 3.3585 62.2393 3.59155L62.2393 4.09189Q62.2421 4.32559 62.2865 4.55616Q62.3306 4.78515 62.4187 4.99251Q62.5041 5.20315 62.6311 5.38098Q62.7564 5.55639 62.9232 5.68427Q63.0897 5.81469 63.299 5.88814Q63.5083 5.9616 63.7597 5.9644Q64.0114 5.96722 64.2398 5.90943Q64.4666 5.85202 64.6624 5.73459Q64.7776 5.66712 64.8839 5.57618Q64.991 5.48465 65.087 5.3717L65.1593 5.4332L65.0644 5.43374ZM65.2543 5.43267L65.2545 5.46788L65.2317 5.49471Q65.1259 5.61916 65.0074 5.72052Q64.8882 5.82247 64.7601 5.89744Q64.5404 6.02928 64.2864 6.09354Q64.0341 6.15741 63.7576 6.1543Q63.4749 6.15116 63.2361 6.06735Q62.9972 5.98352 62.8076 5.83499Q62.6183 5.68986 62.4766 5.49137Q62.3365 5.29529 62.2439 5.06674Q62.1479 4.84084 62.1 4.59206Q62.0524 4.34486 62.0494 4.09189L62.0494 3.58921Q62.0524 3.34152 62.0937 3.09542Q62.1353 2.84735 62.2217 2.61904Q62.3085 2.38951 62.439 2.19222Q62.5719 1.99126 62.7589 1.8423Q62.9431 1.69625 63.1771 1.61086Q63.4125 1.52499 63.7023 1.52499Q64.0218 1.52499 64.2928 1.62426Q64.5654 1.7241 64.7696 1.9092Q64.9732 2.09681 65.0968 2.35834Q65.2198 2.61849 65.248 2.93808L65.2571 3.04139L64.5305 3.04139L64.5168 2.96276Q64.486 2.78676 64.4222 2.63822Q64.3609 2.4956 64.2642 2.39633Q64.1648 2.29695 64.028 2.24037Q63.8911 2.18378 63.7052 2.18378Q63.5294 2.18378 63.3964 2.24247Q63.2613 2.30207 63.1611 2.40227Q63.0593 2.504 62.9921 2.63988Q62.9217 2.782 62.8766 2.93987Q62.8312 3.09882 62.8113 3.26346Q62.7912 3.42991 62.7912 3.58444L62.7912 4.09016Q62.7941 4.24738 62.8184 4.41505Q62.8425 4.5808 62.8935 4.73942Q62.944 4.89656 63.0225 5.03664Q63.0985 5.17247 63.2077 5.27617Q63.3109 5.37673 63.4492 5.43656Q63.5861 5.49582 63.7641 5.49852Q63.8711 5.50134 63.9884 5.49003Q64.102 5.47908 64.2085 5.44631Q64.3131 5.41412 64.404 5.3593Q64.4876 5.30891 64.5443 5.22756L64.6222 5.28186L64.5272 5.28128L64.5332 4.3109L64.6281 4.31148L64.6281 4.40645L63.6548 4.40645L63.6548 3.75359L65.2448 3.75359L65.2543 5.43267ZM65.1593 5.4332Q65.0584 5.55191 64.9456 5.64835Q64.8329 5.74479 64.7112 5.81601Q64.5035 5.94065 64.2631 6.00148Q64.0228 6.06232 63.7586 6.05935Q63.4916 6.05638 63.2675 5.97774Q63.0435 5.8991 62.8654 5.75963Q62.6874 5.62313 62.5538 5.43617Q62.4203 5.24922 62.3313 5.02962Q62.2393 4.81299 62.1933 4.57411Q62.1473 4.33523 62.1443 4.09189L62.1443 3.59038Q62.1473 3.35001 62.1873 3.11113Q62.2274 2.87224 62.3105 2.65264Q62.3936 2.43305 62.5182 2.24461Q62.6429 2.05617 62.8179 1.9167Q62.9901 1.7802 63.2097 1.70007Q63.4292 1.61995 63.7023 1.61995Q64.0049 1.61995 64.2602 1.71343Q64.5154 1.8069 64.7053 1.97902Q64.8952 2.1541 65.0109 2.39892Q65.1267 2.64374 65.1534 2.94643L64.6103 2.94643Q64.5777 2.75948 64.5094 2.60071Q64.4412 2.44195 64.3314 2.32919Q64.2186 2.21642 64.0643 2.15262Q63.91 2.08882 63.7052 2.08882Q63.5094 2.08882 63.358 2.15559Q63.2067 2.22236 63.0939 2.33512Q62.9812 2.44789 62.907 2.59775Q62.8328 2.74761 62.7853 2.91379Q62.7378 3.07997 62.717 3.25208Q62.6963 3.4242 62.6963 3.58444L62.6963 4.09189Q62.6992 4.2551 62.7245 4.4287Q62.7497 4.6023 62.8031 4.76848Q62.8565 4.93466 62.9396 5.08304Q63.0227 5.23141 63.1414 5.34418Q63.2571 5.45694 63.4114 5.52371Q63.5658 5.59048 63.7616 5.59345Q63.8744 5.59642 63.9975 5.58455Q64.1207 5.57268 64.2364 5.53707Q64.3521 5.50146 64.453 5.44062Q64.5539 5.37979 64.6222 5.28186L64.6281 4.31148L63.7497 4.31148L63.7497 3.84855L65.1504 3.84855L65.1593 5.4332ZM68.106 2.82476Q67.7805 2.82476 67.5275 2.96559Q67.2709 3.10846 67.0872 3.35613L66.9261 3.57345L66.9131 3.22295L66.8894 2.79438L66.9843 2.78915L66.9843 2.88411L66.462 2.88411L66.462 2.78915L66.5569 2.78915L66.5569 6L66.462 6L66.462 5.90504L67.0139 5.90504L67.0139 6L66.919 6L66.919 3.92397L66.9246 3.90838Q66.982 3.74874 67.0704 3.61864Q67.1608 3.48552 67.2831 3.39299Q67.4177 3.28792 67.5979 3.23383Q67.7745 3.18086 67.9902 3.18086Q68.1529 3.18086 68.3021 3.19779Q68.4511 3.21468 68.6162 3.25138L68.5956 3.34408L68.5015 3.33108L68.5757 2.79396L68.6698 2.80696L68.6324 2.89424Q68.5616 2.86389 68.4101 2.84479Q68.2514 2.82476 68.106 2.82476ZM68.106 2.63484Q68.2633 2.63484 68.4339 2.65636Q68.6118 2.6788 68.7072 2.71967L68.7738 2.7482L68.6756 3.45912L68.575 3.43677Q68.4197 3.40225 68.2807 3.3865Q68.1422 3.37078 67.9902 3.37078Q67.8024 3.37078 67.6525 3.41574Q67.5064 3.45958 67.3977 3.54443Q67.3003 3.61809 67.2275 3.72533Q67.1526 3.8356 67.1033 3.97271L67.0139 3.94055L67.1089 3.94055L67.1089 6.09496L66.367 6.09496L66.367 2.69419L67.0741 2.69419L67.1029 3.21592L67.1059 3.29605L67.011 3.29956L66.9347 3.243Q67.1427 2.96245 67.4351 2.79966Q67.7311 2.63484 68.106 2.63484ZM68.106 2.7298Q68.2573 2.7298 68.422 2.75057Q68.5867 2.77135 68.6698 2.80696L68.5956 3.34408Q68.4354 3.30847 68.2914 3.29214Q68.1475 3.27582 67.9902 3.27582Q67.7884 3.27582 67.6252 3.32479Q67.462 3.37375 67.3404 3.46871Q67.2306 3.5518 67.1489 3.67199Q67.0673 3.79217 67.0139 3.94055L67.0139 6L66.462 6L66.462 2.78915L66.9843 2.78915L67.008 3.21944L67.011 3.29956Q67.2068 3.03545 67.4813 2.88263Q67.7558 2.7298 68.106 2.7298ZM71.75 5.90504L72.3227 5.90504L72.3227 6L72.2278 6L72.2278 5.95252L72.3227 5.95252L72.2346 5.98779Q72.1773 5.84466 72.146 5.65493Q72.115 5.46771 72.115 5.29967L72.115 3.80701Q72.115 3.55879 72.0266 3.37663Q71.9379 3.19394 71.7853 3.07077Q71.6292 2.94963 71.4124 2.8879Q71.1907 2.82476 70.931 2.82476Q70.6475 2.82476 70.4269 2.90246Q70.2067 2.98002 70.0563 3.10301Q69.9054 3.22701 69.8268 3.37882Q69.7495 3.52819 69.7469 3.68101L69.652 3.6794L69.652 3.58444L70.2039 3.58444L70.2039 3.6794L70.109 3.6794Q70.109 3.55514 70.1688 3.44097Q70.2275 3.32894 70.3331 3.24794Q70.4352 3.16969 70.5799 3.12311Q70.7232 3.077 70.9013 3.077Q71.091 3.077 71.2459 3.12592Q71.4043 3.17593 71.5163 3.26761Q71.6316 3.36536 71.6938 3.50014Q71.7559 3.63481 71.7559 3.80107L71.7559 4.14827L71.0615 4.14827Q70.7375 4.14827 70.4769 4.21093Q70.2221 4.27218 70.0435 4.39309Q69.8705 4.5129 69.7759 4.69127Q69.6816 4.86924 69.6816 5.10975Q69.6816 5.29103 69.7518 5.44595Q69.8218 5.60035 69.9512 5.71127Q70.0814 5.82789 70.2702 5.89581Q70.4609 5.96439 70.6995 5.96439Q70.8458 5.96439 70.9746 5.93425Q71.105 5.90372 71.2212 5.85116Q71.3338 5.79901 71.4287 5.73022Q71.525 5.66045 71.6027 5.58269L71.7466 5.43883L71.7645 5.64149Q71.7729 5.73692 71.7911 5.82502Q71.8077 5.90543 71.8341 5.95594L71.75 6L71.75 5.90504ZM71.75 6.09496L71.6925 6.09496L71.6659 6.04406Q71.6271 5.96993 71.6051 5.8634Q71.5847 5.76454 71.5753 5.65818L71.6699 5.64983L71.737 5.71698Q71.6486 5.8054 71.5401 5.88401Q71.4303 5.96359 71.2995 6.0242Q71.1664 6.08441 71.0179 6.11917Q70.8677 6.15431 70.6995 6.15431Q70.4277 6.15431 70.2059 6.07452Q69.9822 5.99406 69.8276 5.85547Q69.6662 5.71712 69.5788 5.52432Q69.4917 5.33204 69.4917 5.10975Q69.4917 4.82203 69.6081 4.60235Q69.7243 4.38309 69.937 4.23581Q70.1442 4.09558 70.4325 4.02627Q70.715 3.95835 71.0615 3.95835L71.661 3.95835L71.661 4.05331L71.566 4.05331L71.566 3.80107Q71.566 3.67652 71.5213 3.57973Q71.4767 3.48304 71.3961 3.4146Q71.3123 3.34604 71.1887 3.30702Q71.0617 3.26692 70.9013 3.26692Q70.753 3.26692 70.6381 3.3039Q70.5246 3.34041 70.4487 3.39866Q70.3763 3.45417 70.337 3.52909Q70.2989 3.60187 70.2989 3.6794L70.2989 3.77436L69.5554 3.77436L69.557 3.6778Q69.5604 3.48045 69.6581 3.29153Q69.7547 3.10504 69.9361 2.95602Q70.1122 2.81194 70.3638 2.72332Q70.615 2.63484 70.931 2.63484Q71.2172 2.63484 71.4644 2.70524Q71.7165 2.77704 71.9046 2.92298Q72.0903 3.07282 72.1975 3.29371Q72.3049 3.51514 72.3049 3.80701L72.3049 5.29967Q72.3049 5.45212 72.3333 5.62396Q72.3613 5.79331 72.4109 5.91725L72.4177 5.93423L72.4177 6.09496L71.75 6.09496ZM70.7796 5.67654Q70.6036 5.67654 70.467 5.6299Q70.3263 5.58185 70.2314 5.49398Q70.1359 5.40908 70.0875 5.28723Q70.0407 5.16945 70.0407 5.03259Q70.0407 4.88676 70.0957 4.76966Q70.1511 4.65174 70.2574 4.56673Q70.3986 4.45238 70.6321 4.39849Q70.8549 4.34709 71.1506 4.3471L71.7559 4.3471L71.7559 5.11436L71.7459 5.13441Q71.6921 5.24202 71.5993 5.33982Q71.5074 5.43661 71.3837 5.51148Q71.257 5.58618 71.1065 5.63104Q70.9537 5.67654 70.7796 5.67654ZM70.7796 5.48662Q70.926 5.48662 71.0522 5.44903Q71.1806 5.4108 71.2854 5.349Q71.3872 5.28735 71.4615 5.20907Q71.5349 5.13179 71.576 5.04947L71.661 5.09194L71.566 5.09194L71.566 4.44206L71.661 4.44206L71.661 4.53702L71.1506 4.53702Q70.8765 4.53702 70.6749 4.58355Q70.484 4.62758 70.376 4.71503Q70.3042 4.77246 70.2676 4.8504Q70.2306 4.92915 70.2306 5.03259Q70.2306 5.13313 70.264 5.21714Q70.2957 5.29709 70.3604 5.35462Q70.4258 5.41513 70.5284 5.45017Q70.6351 5.48662 70.7796 5.48662ZM70.7796 5.58158Q70.9399 5.58158 71.0793 5.54004Q71.2188 5.49849 71.3345 5.43024Q71.4473 5.36198 71.5304 5.27444Q71.6135 5.1869 71.661 5.09194L71.661 4.44206L71.1506 4.44206Q70.8657 4.44206 70.6535 4.49102Q70.4413 4.53998 70.3167 4.64088Q70.2277 4.7121 70.1817 4.81003Q70.1357 4.90796 70.1357 5.03259Q70.1357 5.15129 70.1757 5.25219Q70.2158 5.35308 70.2959 5.4243Q70.376 5.49849 70.4977 5.54004Q70.6194 5.58158 70.7796 5.58158ZM71.75 6Q71.7174 5.93768 71.6981 5.84421Q71.6788 5.75073 71.6699 5.64983Q71.5868 5.73292 71.4844 5.80711Q71.382 5.8813 71.2604 5.93768Q71.1357 5.99406 70.9962 6.02671Q70.8568 6.05935 70.6995 6.05935Q70.4443 6.05935 70.2381 5.98516Q70.0318 5.91097 69.8894 5.78337Q69.744 5.65874 69.6653 5.48514Q69.5867 5.31154 69.5867 5.10975Q69.5867 4.84564 69.692 4.64681Q69.7974 4.44799 69.9903 4.31445Q70.1832 4.18388 70.4547 4.1186Q70.7262 4.05331 71.0615 4.05331L71.661 4.05331L71.661 3.80107Q71.661 3.65566 71.6076 3.53993Q71.5541 3.4242 71.4562 3.34111Q71.3583 3.26098 71.2173 3.21647Q71.0764 3.17196 70.9013 3.17196Q70.7381 3.17196 70.609 3.2135Q70.4799 3.25505 70.3909 3.3233Q70.3018 3.39156 70.2529 3.48503Q70.2039 3.57851 70.2039 3.6794L69.652 3.6794Q69.6549 3.50432 69.7425 3.33517Q69.83 3.16602 69.9962 3.02952Q70.1594 2.89598 70.3953 2.81289Q70.6312 2.7298 70.931 2.7298Q71.204 2.7298 71.4384 2.79657Q71.6728 2.86334 71.845 2.99688Q72.0141 3.13338 72.112 3.33517Q72.21 3.53696 72.21 3.80701L72.21 5.29967Q72.21 5.45991 72.2396 5.63945Q72.2693 5.81898 72.3227 5.95252L72.3227 6L71.75 6ZM73.2752 7.13953L73.8242 7.13953L73.8242 7.23449L73.7292 7.23449L73.7292 5.44575L73.8945 5.6275Q73.9488 5.68731 74.0113 5.73757Q74.0739 5.78787 74.1447 5.82872Q74.2598 5.89297 74.406 5.9285Q74.5537 5.96439 74.7263 5.96439Q75.0055 5.96439 75.2206 5.85075Q75.4371 5.73637 75.5844 5.53451Q75.7345 5.32882 75.813 5.04717Q75.8926 4.76144 75.8926 4.43019L75.8926 4.36787Q75.8926 4.02166 75.8129 3.73285Q75.7345 3.44867 75.5848 3.24624Q75.4377 3.0475 75.2201 2.93598Q75.0031 2.82476 74.7174 2.82476Q74.5537 2.82476 74.4119 2.85918Q74.2721 2.8931 74.1592 2.95766L74.158 2.95834L74.1567 2.959Q74.0771 3.00147 74.008 3.06126Q73.9378 3.12207 73.8781 3.19799L73.7273 3.3899L73.682 2.79637L73.7767 2.78915L73.7767 2.88411L73.2752 2.88411L73.2752 2.78915L73.3702 2.78915L73.3702 7.23449L73.2752 7.23449L73.2752 7.13953ZM73.1803 7.32945L73.1803 2.69419L73.8647 2.69419L73.8981 3.1321L73.8034 3.13932L73.7288 3.08065Q73.7997 2.99039 73.8837 2.91765Q73.9689 2.84391 74.0674 2.79142L74.1121 2.87521L74.0649 2.79276Q74.2012 2.71487 74.3671 2.67461Q74.531 2.63484 74.7174 2.63484Q75.049 2.63484 75.3068 2.76696Q75.564 2.89877 75.7374 3.13329Q75.9082 3.36412 75.996 3.68234Q76.0825 3.99594 76.0825 4.36787L76.0825 4.43019Q76.0825 4.7874 75.9959 5.09814Q75.9082 5.41296 75.7378 5.64646Q75.5646 5.88379 75.3093 6.01868Q75.0526 6.15431 74.7263 6.15431Q74.531 6.15431 74.3612 6.11305Q74.1898 6.07142 74.0498 5.99323Q73.9663 5.94505 73.8923 5.88556Q73.8183 5.82602 73.7539 5.75526L73.8242 5.69138L73.9192 5.69138L73.9192 7.32945L73.2752 7.32945L73.1803 7.32945ZM75.5335 4.36787L75.5335 4.43019Q75.5335 4.67599 75.4789 4.90071Q75.4231 5.13026 75.3073 5.30716Q75.1881 5.4892 75.0025 5.59694Q74.8142 5.70622 74.5602 5.70622Q74.4036 5.70622 74.2729 5.66651Q74.1426 5.62692 74.0362 5.55711Q73.9419 5.49649 73.8675 5.40849Q73.7964 5.32454 73.7416 5.22778L73.7292 5.206L73.7292 3.61016L73.7413 3.58857Q73.8028 3.47855 73.8839 3.38766Q73.9679 3.29364 74.0754 3.22978L74.1239 3.31143L74.0719 3.232Q74.1705 3.16742 74.2932 3.13379Q74.4138 3.10074 74.5542 3.10074Q74.8109 3.10074 74.999 3.20821Q75.1841 3.31398 75.3062 3.49219Q75.423 3.67069 75.4788 3.89868Q75.5335 4.12198 75.5335 4.36787ZM75.3436 4.36787Q75.3436 4.14489 75.2944 3.94383Q75.2463 3.74747 75.1495 3.59954Q75.052 3.45726 74.9048 3.37311Q74.7605 3.29066 74.5542 3.29066Q74.4394 3.29066 74.3434 3.31696Q74.2495 3.34268 74.176 3.39086L74.1742 3.39201L74.1724 3.39309Q74.09 3.44199 74.0256 3.51415Q73.9584 3.58944 73.9071 3.68122L73.8242 3.63489L73.9192 3.63489L73.9192 5.18097L73.8242 5.18097L73.9068 5.13415Q73.9529 5.21544 74.0124 5.28581Q74.0685 5.35211 74.1404 5.39833Q74.224 5.45315 74.3281 5.48479Q74.4318 5.5163 74.5602 5.5163Q74.7631 5.5163 74.9072 5.43268Q75.0539 5.34753 75.1484 5.20315Q75.2463 5.05362 75.2943 4.85585Q75.3436 4.65324 75.3436 4.43019L75.3436 4.36787ZM75.4385 4.36787Q75.4385 4.13343 75.3866 3.92126Q75.3347 3.70908 75.2278 3.54587Q75.118 3.38562 74.9519 3.29066Q74.7857 3.1957 74.5542 3.1957Q74.4266 3.1957 74.3183 3.22537Q74.21 3.25505 74.1239 3.31143Q74.029 3.36782 73.9548 3.45091Q73.8806 3.534 73.8242 3.63489L73.8242 5.18097Q73.8747 5.26999 73.9399 5.34715Q74.0052 5.4243 74.0883 5.47772Q74.1833 5.54004 74.3005 5.57565Q74.4177 5.61126 74.5602 5.61126Q74.7887 5.61126 74.9548 5.51481Q75.121 5.41837 75.2278 5.25515Q75.3347 5.09194 75.3866 4.87828Q75.4385 4.66462 75.4385 4.43019L75.4385 4.36787ZM73.2752 7.23449L73.2752 2.78915L73.7767 2.78915L73.8034 3.13932Q73.8687 3.05623 73.9459 2.98946Q74.023 2.92269 74.1121 2.87521Q74.2367 2.80399 74.3895 2.76689Q74.5424 2.7298 74.7174 2.7298Q75.0261 2.7298 75.2635 2.85147Q75.5009 2.97314 75.6611 3.18976Q75.8214 3.40639 75.9044 3.7076Q75.9875 4.0088 75.9875 4.36787L75.9875 4.43019Q75.9875 4.77442 75.9044 5.07265Q75.8214 5.37089 75.6611 5.59048Q75.5009 5.81008 75.2649 5.93471Q75.029 6.05935 74.7263 6.05935Q74.5424 6.05935 74.3836 6.02077Q74.2248 5.98219 74.0972 5.91097Q74.0201 5.86646 73.9518 5.81156Q73.8836 5.75666 73.8242 5.69138L73.8242 7.23449L73.2752 7.23449ZM77.3703 3.26692L77.3703 1.4419L77.4653 1.4419L77.4653 1.53686L76.9163 1.53686L76.9163 1.4419L77.0112 1.4419L77.0112 6L76.9163 6L76.9163 5.90504L77.4653 5.90504L77.4653 6L77.3703 6L77.3703 3.6403L77.3847 3.61721Q77.4493 3.51386 77.5319 3.42809Q77.6147 3.34201 77.7123 3.27693Q77.8359 3.19236 77.9831 3.14657Q78.1304 3.10074 78.2932 3.10074Q78.4906 3.09749 78.6468 3.15567Q78.8085 3.21588 78.9163 3.3375Q79.0157 3.44725 79.0665 3.61128Q79.1152 3.76892 79.1152 3.97319L79.1152 6L79.0202 6L79.0202 5.90504L79.5692 5.90504L79.5692 6L79.4743 6L79.4743 3.97912Q79.4743 3.67107 79.4005 3.44978Q79.3285 3.23372 79.1974 3.09464Q79.0678 2.95711 78.8833 2.89206Q78.6924 2.82476 78.4564 2.82476Q78.2788 2.82751 78.1213 2.87681Q77.9656 2.92555 77.8358 3.02019Q77.7524 3.07855 77.6784 3.15391Q77.6046 3.22912 77.5443 3.31959L77.3703 3.58055L77.3703 3.26692ZM77.5602 3.26692L77.4653 3.26692L77.3863 3.21425Q77.4565 3.10886 77.5429 3.02086Q77.6292 2.933 77.7239 2.86673Q77.879 2.75365 78.0645 2.69556Q78.2483 2.63803 78.4564 2.63484Q78.7249 2.63484 78.9465 2.71295Q79.1744 2.79331 79.3357 2.9644Q79.4954 3.13394 79.5807 3.38972Q79.6642 3.64025 79.6642 3.97912L79.6642 6.09496L78.9253 6.09496L78.9253 3.97319Q78.9253 3.79762 78.885 3.6674Q78.8467 3.54359 78.7741 3.46342Q78.6978 3.37731 78.5806 3.33366Q78.4579 3.28797 78.2932 3.29066Q78.1593 3.29066 78.0395 3.32792Q77.9196 3.36522 77.8177 3.43496Q77.7372 3.48858 77.6687 3.55978Q77.5999 3.63129 77.5458 3.71786L77.4653 3.66753L77.5602 3.66753L77.5602 6.09496L76.8213 6.09496L76.8213 1.34694L77.5602 1.34694L77.5602 3.26692ZM77.4653 3.26692Q77.5306 3.16899 77.6107 3.08739Q77.6908 3.00578 77.7798 2.94346Q77.9223 2.8396 78.0929 2.78618Q78.2635 2.73277 78.4564 2.7298Q78.7087 2.7298 78.9149 2.8025Q79.1211 2.87521 79.2665 3.02952Q79.412 3.18383 79.4906 3.41975Q79.5692 3.65566 79.5692 3.97912L79.5692 6L79.0202 6L79.0202 3.97319Q79.0202 3.78327 78.9757 3.63934Q78.9312 3.49542 78.8452 3.40046Q78.7532 3.2966 78.6137 3.24466Q78.4742 3.19273 78.2932 3.1957Q78.1448 3.1957 78.0113 3.23724Q77.8778 3.27879 77.765 3.35595Q77.676 3.4153 77.6003 3.49393Q77.5246 3.57257 77.4653 3.66753L77.4653 6L76.9163 6L76.9163 1.4419L77.4653 1.4419L77.4653 3.26692Z" fill="#0E1318" fill-opacity="1.000000" transform="matrix(1 0 0 1 61.1848 48.1012)"/></svg>